<svg version="1.1" viewBox="0 0 32 32" xmlns="http://www.w3.org/2000/svg">
 <path d="m2 6v20h24.1l4.05-7.2v-5.13l-4.96-7.68z" fill="#fff" stroke-width="0"/>
 <path d="m31.4 13.9-5-8c-0.73-1.17-2.01-1.88-3.39-1.88h-19c-2.21 0-4 1.79-4 4v16c0 2.21 1.79 4 4 4h19c1.38 0 2.66-0.711 3.39-1.88l5-8c0.812-1.3 0.812-2.94 0-4.24zm-1.7 3.18-5 8c-0.367 0.588-1 0.939-1.7 0.939h-19c-1.1 0-2-0.898-2-2v-16c0-1.1 0.897-2 2-2h19c0.693 0 1.33 0.352 1.7 0.939l5 8c0.403 0.645 0.403 1.48 0 2.12z" fill="#a10000"/>
 <path d="m26.9 12-2.14 8h-1.51l-1.59-5.88-1.45 5.88h-1.48l-2.19-8h1.53l1.55 5.83 1.44-5.83h1.46l1.59 5.83 1.52-5.83zm-10.8 8h-5.2v-8h5.14v1.19h-3.7v2.17h2.98v1.16h-2.98v2.24h3.76zm-6.96 0h-1.4l-3.04-5.11q-0.0703-0.117-0.229-0.381-0.0703-0.117-0.217-0.369v5.86h-1.16v-8h1.59l2.8 4.71q0.0352 0.0586 0.51 0.861v-5.57h1.14z" fill="#a10000"/>
</svg>
