<svg width="442pt" height="348pt" version="1.1" viewBox="0 0 442 348" xmlns="http://www.w3.org/2000/svg">
 <path d="m271 207c-0.645 0-1.3-0.0703-1.95-0.223l-19.2-4.38c-4.71-1.07-7.66-5.76-6.59-10.5 1.07-4.71 5.75-7.68 10.5-6.59l19.2 4.38c4.71 1.07 7.66 5.76 6.59 10.5-0.926 4.06-4.53 6.82-8.53 6.82zm-166-67.5c-11.9-6.34-22.9-13.4-31.4-20.4-33-26.9-43.7-64.6-24.9-87.7 18.8-23.1 57.9-20.2 90.9 6.73 11.1 9.05 24.1 23 35.3 38.2 4.02-13.2 9.17-25.9 14.6-35.7 19-33.9 51.3-49.5 75.1-36.1 23.9 13.3 27.5 49 8.57 82.9-8.34 14.9-22.3 32-36.7 45.5 53.7 15.9 91 56.7 111 84.7l85.7-4e-3c4.83 0 8.75 3.92 8.75 8.75s-3.92 8.75-8.75 8.75h-74.1c3.58 5.89 5.62 9.81 6.04 10.6 1.21 2.38 1.27 5.19 0.152 7.61-1.77 3.84-44.7 94.2-175 94.2-130 0-187-102-190-106-1.15-2.08-1.39-4.53-0.691-6.8 0.898-2.91 21.6-66.7 105-94.9zm21.9 181c-37.1-77.5-34-132-27.7-160-7.62 3.16-14.6 6.6-20.9 10.3-2.48 8.36-16.5 64.3 23.1 139 7.94 3.92 16.4 7.48 25.6 10.5zm1.62-268c-14.7-12-31-18.3-44.3-18.3-9.14 0-16.9 2.97-21.9 9.1-12.3 15.1-2.48 42.8 22.4 63 11.3 9.19 28 19 44.8 26.4 28.8 12.6 48.8 13.8 53 8.66 1.13-1.38 1.34-3.7 1.33-5.4-0.0625-8.34-5.06-20.2-12.6-32.7-0.0547-0.0859-0.105-0.176-0.16-0.258-11.2-18.5-27.9-38.4-42.6-50.5zm129 27.2c13.9-24.8 13.1-50.8-1.84-59.1-14.9-8.32-37.4 4.58-51.3 29.4-6.85 12.2-13.2 29.9-17 46.8 6.15 10.7 10.7 21.3 12.6 30.6 5.1 0.301 10.1 0.824 15 1.57 15.9-12.7 33.4-32.8 42.6-49.3zm80.5 156h-18.2c-4.83 0-8.75-3.92-8.75-8.75s3.92-8.75 8.75-8.75h5.21c-23.5-29.3-63.7-66.6-119-72.9-0.168 0.68-0.406 1.35-0.723 2.01-13.2 27.6-15.9 97.9 30.3 179 27.4-5.6 48.9-15.8 65.4-27.1-12.2-1.87-27-7.99-43.3-22.9-3.55-3.26-3.79-8.8-0.531-12.4 3.26-3.55 8.8-3.81 12.4-0.531 32.4 29.7 54.8 15.9 56.1 15.1 11.3-11.7 18-22.3 21.1-27.7-1.87-3.25-4.98-8.41-9.25-14.7zm-142 94.7c-42.2-76-41.1-137-35.4-170-7.43-1.16-15-3.23-22.1-5.64-5.32 12.5-23.6 70.2 34.2 175 5.75 0.477 11.7 0.762 17.7 0.762 1.92 0 3.67-0.168 5.55-0.207zm-142-52.3c-10.9-30.8-13.7-57-13.2-76.9-13.5 15.1-20.1 29-22.7 35.4 4.41 6.93 16.2 23.9 35.9 41.5z"/>
 <g transform="translate(-267 -474)">
  <path d="m395 526c-14.7-12-31-18.3-44.3-18.3-9.14 0-16.9 2.97-21.9 9.1-12.3 15.1-2.48 42.8 22.4 63 11.3 9.19 28 19 44.8 26.4 28.8 12.6 48.8 13.8 53 8.66 1.13-1.38 1.34-3.7 1.33-5.4-0.0624-8.34-5.06-20.2-12.6-32.7-0.0547-0.0859-0.105-0.176-0.16-0.258-11.2-18.5-27.9-38.4-42.6-50.5zm129 27.2c13.9-24.8 13.1-50.8-1.84-59.1-14.9-8.32-37.4 4.58-51.3 29.4-6.85 12.2-13.2 29.9-17 46.8 6.15 10.7 10.7 21.3 12.6 30.6 5.1 0.301 10.1 0.824 15 1.57 15.9-12.7 33.4-32.8 42.6-49.3z" fill="#fff"/>
  <path d="m394 794c-37.1-77.5-34-132-27.7-160-7.62 3.16-14.6 6.6-20.9 10.3-2.48 8.36-16.5 64.3 23.1 139 7.94 3.92 16.4 7.48 25.6 10.5zm80-175c-0.168 0.68-0.407 1.35-0.724 2.01-13.2 27.6-15.9 97.9 30.3 179 27.4-5.6 48.9-15.8 65.4-27.1-12.3-1.87-27-7.99-43.3-22.9-3.55-3.26-3.79-8.8-0.53-12.4 3.26-3.55 8.8-3.81 12.4-0.532 32.4 29.7 54.8 15.9 56.1 15.1 11.3-11.7 18-22.3 21.1-27.7-1.87-3.25-4.98-8.41-9.25-14.7v6e-3h-18.2c-4.83 0-8.75-3.92-8.75-8.75s3.92-8.75 8.75-8.75h5.21c-23.5-29.3-63.7-66.6-119-72.9zm44.3 40.3c0.723-0.0198 1.46 0.0516 2.2 0.221l19.3 4.38c4.71 1.07 7.66 5.76 6.59 10.5-0.926 4.06-4.53 6.82-8.53 6.82h-1e-3c-0.645 0-1.3-0.07-1.95-0.223l-19.2-4.38c-4.71-1.07-7.66-5.76-6.59-10.5 0.903-3.97 4.37-6.71 8.27-6.81zm-54.8 145c-42.2-76-41.1-137-35.4-170-7.43-1.16-15-3.23-22.1-5.64-5.32 12.5-23.6 70.2 34.2 175 5.75 0.477 11.7 0.762 17.7 0.762 1.92 0 3.67-0.168 5.55-0.207zm-142-52.3c-10.9-30.8-13.7-57-13.2-76.9-13.5 15.1-20.1 29-22.7 35.4 4.41 6.93 16.2 23.9 35.9 41.5z" fill="#f8cd05"/>
 </g>
</svg>
