<svg width="160" height="46" version="1.1" viewBox="0 0 42.333 12.171" xmlns="http://www.w3.org/2000/svg">
	<rect x="-.00045652" y="4.7302e-7" width="42.333" height="12.171" fill="#f4d883" fill-opacity=".94118"/>
	<g transform="matrix(.48301 0 0 .48301 .85953 -133.67)" stroke-width="1.5899">
		<g transform="matrix(-.26458 0 0 .26458 22.992 277.4)" stroke-width="1.5899">
			<path d="m61.102 42.226c1.701-0.906 3.267-1.914 4.488-2.91 4.712-3.844 6.239-9.227 3.552-12.522-2.688-3.294-8.269-2.881-12.98 0.962-1.586 1.293-3.445 3.285-5.048 5.462-0.574-1.887-1.31-3.706-2.087-5.098-2.71-4.848-7.326-7.067-10.731-5.162-3.408 1.905-3.934 6.997-1.225 11.845 1.192 2.133 3.183 4.576 5.237 6.502-7.672 2.266-13 8.102-15.882 12.102h-12.243c-0.69 0-1.25 0.56-1.25 1.25s0.56 1.25 1.25 1.25h10.581c-0.511 0.841-0.803 1.401-0.862 1.517-0.173 0.34-0.181 0.741-0.022 1.087 0.252 0.549 6.381 13.452 24.969 13.452 18.526 0 26.754-14.583 27.095-15.204 0.164-0.297 0.199-0.647 0.099-0.971-0.129-0.417-3.087-9.53-14.941-13.562zm-3.128 25.799c5.299-11.075 4.863-18.83 3.955-22.807 1.088 0.451 2.087 0.943 2.992 1.47 0.354 1.195 2.356 9.179-3.296 19.839-1.134 0.56-2.35 1.068-3.651 1.498zm-0.231-38.331c2.105-1.718 4.425-2.62 6.33-2.62 1.306 0 2.417 0.424 3.132 1.3 1.757 2.155 0.354 6.11-3.195 9.004-1.609 1.313-4.004 2.721-6.406 3.768-4.115 1.794-6.976 1.977-7.577 1.238-0.161-0.197-0.192-0.528-0.19-0.771 9e-3 -1.192 0.723-2.887 1.796-4.674 8e-3 -0.012 0.015-0.025 0.023-0.037 1.595-2.646 3.98-5.49 6.087-7.208zm-18.49 3.89c-1.981-3.544-1.866-7.253 0.262-8.443 2.126-1.188 5.348 0.654 7.329 4.199 0.978 1.75 1.889 4.272 2.428 6.684-0.879 1.527-1.527 3.036-1.793 4.378-0.729 0.043-1.442 0.118-2.138 0.225-2.268-1.811-4.772-4.69-6.088-7.043zm-11.499 22.325h2.595c0.69 0 1.25-0.56 1.25-1.25s-0.56-1.25-1.25-1.25h-0.745c3.36-4.18 9.098-9.518 16.94-10.418 0.024 0.097 0.058 0.193 0.103 0.287 1.888 3.948 2.274 13.988-4.334 25.532-3.913-0.8-6.987-2.251-9.348-3.871 1.75-0.267 3.862-1.142 6.188-3.276 0.508-0.466 0.542-1.257 0.076-1.766-0.466-0.508-1.257-0.544-1.766-0.076-4.625 4.243-7.829 2.276-8.02 2.152-1.614-1.673-2.576-3.185-3.01-3.963 0.266-0.465 0.711-1.202 1.321-2.101zm20.301 13.526c6.032-10.856 5.867-19.616 5.058-24.286 1.062-0.165 2.149-0.461 3.161-0.806 0.76 1.788 3.365 10.032-4.891 25.013-0.822 0.068-1.665 0.109-2.535 0.109-0.274 0-0.524-0.024-0.793-0.03zm20.289-7.477c1.553-4.405 1.951-8.14 1.881-10.988 1.931 2.162 2.877 4.148 3.243 5.054-0.631 0.991-2.316 3.414-5.124 5.934z"/>
			<path d="m37.432 51.868c0.092 0 0.185-0.01 0.278-0.032l2.75-0.625c0.673-0.153 1.095-0.823 0.942-1.496s-0.821-1.097-1.496-0.942l-2.75 0.625c-0.673 0.153-1.095 0.823-0.942 1.496 0.132 0.58 0.647 0.974 1.218 0.974z"/>
		</g>
		<path d="m10.674 288.08c-0.19399-0.0353-0.23828-0.0799-0.30637-0.30859-0.04378-0.14699-0.14747-0.39929-0.23041-0.56066-0.1486-0.2891-0.14916-0.29935-0.03793-0.70158 0.15931-0.5761 0.59271-1.4794 0.87526-1.8242 0.30173-0.36822 0.84603-0.68726 1.1739-0.6881 0.28894-7.9e-4 0.59588 0.22602 0.72373 0.53466 0.22126 0.53418-0.0809 1.5298-0.71497 2.3559-0.33867 0.44122-1.134 1.2575-1.2108 1.2427-0.02511-5e-3 -0.14768-0.0274-0.2724-0.0501z" fill-opacity="0"/>
		<path d="m8.5951 288.56c-0.48029-0.12856-1.6172-0.67142-2.1134-1.0092-0.21571-0.14681-0.55114-0.43536-0.74539-0.64123-1.3974-1.4809-0.4723-2.9196 1.3123-2.041 0.76232 0.37528 1.9386 1.6649 2.4691 2.7071 0.21823 0.42867 0.31354 0.87369 0.21306 0.99476-0.10615 0.12791-0.63694 0.12299-1.1357-0.0105z" fill-opacity="0"/>
		<g fill="#f8cd05">
			<path d="m11.463 294.87c-0.41422-0.82542-0.82106-2.0198-0.96384-2.8297-0.18455-1.0468-0.13556-2.3154 0.11677-3.024 0.07219-0.20272 0.09373-0.21493 0.31447-0.17828 1.2086 0.2007 2.3146 0.80875 3.4175 1.879 0.36382 0.35303 0.6613 0.65989 0.66107 0.6819-2.33e-4 0.022-0.09043 0.0912-0.20045 0.15384-0.13762 0.0783-0.20003 0.16542-0.20003 0.27921 0 0.27323 0.16467 0.37537 0.60518 0.37537 0.38743 0 0.39868 5e-3 0.57315 0.26892l0.17796 0.26892-0.25236 0.36641c-0.41262 0.5991-0.6444 0.76618-1.0629 0.76618-0.53337 0-0.83253-0.12769-1.5611-0.66636-0.3705-0.27392-0.76315 0.0948-0.49614 0.46591 0.17463 0.24271 0.90792 0.71952 1.2681 0.82453l0.31018 0.0904-0.29564 0.18662c-0.46201 0.29166-1.7234 0.76929-2.0317 0.76929-0.02193 0-0.19302-0.30521-0.38022-0.67825zm1.9056-3.8802c0.12605-0.17996 0.12983-0.25838 0.01968-0.40901-0.0808-0.11049-0.7256-0.30375-1.0301-0.30873-0.30308-5e-3 -0.47918 0.4132-0.25305 0.60088 0.1145 0.095 0.70258 0.25094 0.97948 0.25968 0.1147 4e-3 0.21768-0.0482 0.28397-0.14282z"/>
			<path d="m9.0101 294.9c-0.75846-1.5794-1.1087-2.8881-1.1132-4.1594-0.00265-0.71466 0.10559-1.4262 0.22822-1.502 0.028093-0.0174 0.21449 3e-3 0.41421 0.0446l0.36313 0.0762-0.059616 0.47344c-0.18323 1.4551 0.2035 3.4417 0.99481 5.1103 0.19861 0.41881 0.36111 0.7721 0.36111 0.7851s-0.1754 0.0236-0.38979 0.0236h-0.38979z"/>
			<path d="m7.0166 295.12c-0.34016-0.15556-0.34445-0.16141-0.6467-0.87986-0.5543-1.3176-0.78285-2.616-0.65114-3.6993 0.039666-0.32623 0.088141-0.63489 0.10772-0.68592 0.029377-0.0766 0.54128-0.38052 0.64083-0.38052 0.016007 0 0.017039 0.45853 0.00238 1.019-0.038079 1.4495 0.1718 2.5301 0.79301 4.0829 0.14489 0.36218 0.26344 0.67038 0.26344 0.68488 0 0.0585-0.18485 7e-3 -0.50947-0.14119z"/>
			<path d="m4.418 293.27c-0.17532-0.19437-0.43666-0.50902-0.58076-0.69923l-0.262-0.34582 0.11417-0.22212c0.062791-0.12217 0.23761-0.40253 0.38848-0.62303l0.27432-0.4009 0.016642 0.26727c0.031604 0.50752 0.1606 1.3214 0.28901 1.8235 0.070863 0.27707 0.1176 0.51499 0.10387 0.52873-0.013732 0.0137-0.16841-0.13407-0.34373-0.32843z"/>
		</g>
		<path d="m10.674 288.08c-0.19399-0.0353-0.23828-0.0799-0.30637-0.30859-0.04378-0.14699-0.14747-0.39929-0.23041-0.56066-0.1486-0.2891-0.14916-0.29935-0.03793-0.70158 0.15931-0.5761 0.59271-1.4794 0.87526-1.8242 0.30173-0.36822 0.84603-0.68726 1.1739-0.6881 0.28894-7.9e-4 0.59588 0.22602 0.72373 0.53466 0.22126 0.53418-0.0809 1.5298-0.71497 2.3559-0.33867 0.44122-1.134 1.2575-1.2108 1.2427-0.02511-5e-3 -0.14768-0.0274-0.2724-0.0501z" fill="#fff"/>
		<path d="m8.5951 288.56c-0.48029-0.12856-1.6172-0.67142-2.1134-1.0092-0.21571-0.14681-0.55114-0.43536-0.74539-0.64123-1.3974-1.4809-0.4723-2.9196 1.3123-2.041 0.76232 0.37528 1.9386 1.6649 2.4691 2.7071 0.21823 0.42867 0.31354 0.87369 0.21306 0.99476-0.10615 0.12791-0.63694 0.12299-1.1357-0.0105z" fill="#fff"/>
	</g>
	<text x="12.558234" y="4.6239471" fill="#000000" font-family="'Comic Sans MS'" font-size="2.5759px" letter-spacing="0px" stroke-width=".30703px" word-spacing="0px" style="line-height:125%" xml:space="preserve"><tspan x="12.558234" y="4.6239471" font-family="'Open Sans'" stroke-width=".30703px">Spelling Bee Assistant</tspan></text>
	<text x="12.256927" y="9.9900827" fill="#000000" font-family="'Comic Sans MS'" font-size="4.4284px" letter-spacing="0px" stroke-width=".30703px" word-spacing="0px" style="line-height:125%" xml:space="preserve"><tspan x="12.256927" y="9.9900827" font-family="'Open Sans'" stroke-width=".30703px">Bookmarklet</tspan></text>
</svg>
