<svg width="160" height="46" version="1.1" viewBox="0 0 42.333 12.171" xmlns="http://www.w3.org/2000/svg" xmlns:xlink="http://www.w3.org/1999/xlink">
	<defs>
		<linearGradient id="a" x1="69.972" x2="8.7174" y1="12.2" y2="73.257" gradientTransform="matrix(2.2736,0,0,2.3484,-12.411,-16.086)" gradientUnits="userSpaceOnUse">
			<stop stop-color="#fff44f" offset=".05"/>
			<stop stop-color="#ff980e" offset=".37"/>
			<stop stop-color="#ff3647" offset=".53"/>
			<stop stop-color="#e31587" offset=".7"/>
		</linearGradient>
		<radialGradient id="b" cx="62.187" cy="9.8704" r="89.357" gradientTransform="matrix(2.5625,0,0,2.0836,-12.411,-16.086)" gradientUnits="userSpaceOnUse">
			<stop stop-color="#ffbd4f" offset=".13"/>
			<stop stop-color="#ff980e" offset=".28"/>
			<stop stop-color="#ff3750" offset=".47"/>
			<stop stop-color="#eb0878" offset=".78"/>
			<stop stop-color="#e50080" offset=".86"/>
		</radialGradient>
		<radialGradient id="c" cx="35.379" cy="46.8" r="89.357" gradientTransform="matrix(2.5625,0,0,2.0836,-12.411,-16.086)" gradientUnits="userSpaceOnUse">
			<stop stop-color="#960e18" offset=".3"/>
			<stop stop-color="#b11927" stop-opacity=".74" offset=".35"/>
			<stop stop-color="#db293d" stop-opacity=".34" offset=".43"/>
			<stop stop-color="#f5334b" stop-opacity=".09" offset=".5"/>
			<stop stop-color="#ff3750" stop-opacity="0" offset=".53"/>
		</radialGradient>
		<radialGradient id="d" cx="62.101" cy="-2.8991" r="33.903" gradientTransform="matrix(1.7733,0,0,3.0109,-12.411,-16.086)" gradientUnits="userSpaceOnUse">
			<stop stop-color="#fff44f" offset=".13"/>
			<stop stop-color="#ff980e" offset=".53"/>
		</radialGradient>
		<radialGradient id="e" cx="31.922" cy="60.196" r="36.045" gradientTransform="matrix(2.207,0,0,2.4193,-12.411,-16.086)" gradientUnits="userSpaceOnUse">
			<stop stop-color="#3a8ee6" offset=".35"/>
			<stop stop-color="#9059ff" offset=".67"/>
			<stop stop-color="#c139e6" offset="1"/>
		</radialGradient>
		<radialGradient id="f" cx="42.462" cy="32.402" r="21.267" gradientTransform="matrix(2.207,0,0,2.4193,-12.411,-16.086)" gradientUnits="userSpaceOnUse">
			<stop stop-color="#9059ff" stop-opacity="0" offset=".21"/>
			<stop stop-color="#6e008b" stop-opacity=".6" offset=".97"/>
		</radialGradient>
		<radialGradient id="g" cx="37.516" cy="5.935" r="27.421" gradientTransform="matrix(2.3064,0,0,2.315,-12.411,-16.086)" gradientUnits="userSpaceOnUse">
			<stop stop-color="#ffe226" offset=".1"/>
			<stop stop-color="#ff7139" offset=".79"/>
		</radialGradient>
		<radialGradient id="h" cx="57.203" cy="-13.152" r="119.7" gradientTransform="matrix(2.5219,0,0,2.1172,-12.411,-16.086)" gradientUnits="userSpaceOnUse">
			<stop stop-color="#fff44f" offset=".11"/>
			<stop stop-color="#ff980e" offset=".46"/>
			<stop stop-color="#ff3647" offset=".72"/>
			<stop stop-color="#e31587" offset=".9"/>
		</radialGradient>
		<radialGradient id="i" cx="74.836" cy="-6.7048" r="125.79" gradientTransform="matrix(1.5901,0,0,3.3579,-12.411,-16.086)" gradientUnits="userSpaceOnUse">
			<stop stop-color="#fff44f" offset="0"/>
			<stop stop-color="#ff980e" offset=".3"/>
			<stop stop-color="#ff3647" offset=".57"/>
			<stop stop-color="#e31587" offset=".74"/>
		</radialGradient>
		<radialGradient id="j" cx="37.373" cy="16.031" r="74.328" gradientTransform="matrix(2.3326,0,0,2.289,-12.411,-16.086)" gradientUnits="userSpaceOnUse">
			<stop stop-color="#fff44f" offset=".14"/>
			<stop stop-color="#ff980e" offset=".48"/>
			<stop stop-color="#ff3647" offset=".66"/>
			<stop stop-color="#e31587" offset=".9"/>
		</radialGradient>
		<radialGradient id="k" cx="54.134" cy="21.246" r="85.336" gradientTransform="matrix(2.4418,0,0,2.1867,-12.411,-16.086)" gradientUnits="userSpaceOnUse">
			<stop stop-color="#fff44f" offset=".09"/>
			<stop stop-color="#ff980e" offset=".63"/>
		</radialGradient>
		<linearGradient id="l" x1="64.267" x2="15.484" y1="11.02" y2="66.097" gradientTransform="matrix(2.2736,0,0,2.3484,-12.411,-16.086)" gradientUnits="userSpaceOnUse">
			<stop stop-color="#fff44f" stop-opacity=".8" offset=".17"/>
			<stop stop-color="#fff44f" stop-opacity="0" offset=".6"/>
		</linearGradient>
		<rect id="SVGID_1_" width="864" height="312"/>
	</defs>
	<g transform="translate(.67919 -283.11)">
		<g transform="matrix(.049371 0 0 .03981 -.80741 283.09)">
			<defs>
				<rect width="864" height="312"/>
			</defs>
			<clipPath id="SVGID_2_">
				<use width="100%" height="100%" overflow="visible" xlink:href="#SVGID_1_"/>
			</clipPath>
		</g>
		<rect x="-.67965" y="283.11" width="42.334" height="12.171" style="paint-order:markers stroke fill"/>
		<g transform="matrix(.03981 0 0 .03981 -.80741 283)">
			<rect x="70.5" y="68.6" width="83.8" height="83.8" fill="#f25022"/>
			<rect x="163" y="68.6" width="83.8" height="83.8" fill="#7fba00"/>
			<rect x="70.5" y="161" width="83.8" height="83.8" fill="#00a4ef"/>
			<rect x="163" y="161" width="83.8" height="83.8" fill="#ffb900"/>
			<g fill="#fff">
				<path d="m408.3 163c0-2.5 0.9-4.5 2.7-6.2s3.9-2.5 6.4-2.5c2.6 0 4.8 0.9 6.5 2.6s2.6 3.8 2.6 6.1c0 2.4-0.9 4.5-2.7 6.1-1.8 1.7-3.9 2.5-6.5 2.5s-4.7-0.8-6.5-2.5c-1.6-1.7-2.5-3.7-2.5-6.1m16.5 81.8h-14.9v-63.5h14.9z"/>
				<path d="m470.2 233.9c2.2 0 4.7-0.5 7.4-1.5s5.1-2.4 7.4-4.1v13.9c-2.4 1.4-5.1 2.4-8.1 3.1s-6.4 1.1-10 1.1c-9.3 0-16.9-3-22.8-8.9s-8.8-13.5-8.8-22.6c0-10.2 3-18.6 9-25.2s14.4-9.9 25.4-9.9c2.8 0 5.6 0.4 8.5 1.1s5.1 1.6 6.8 2.5v14.3c-2.3-1.7-4.7-3-7.1-3.9s-4.9-1.4-7.4-1.4c-5.9 0-10.6 1.9-14.3 5.7-3.6 3.8-5.4 9-5.4 15.5 0 6.4 1.7 11.4 5.2 15s8.2 5.3 14.2 5.3"/>
				<path d="m527.5 180.3c1.2 0 2.3 0.1 3.2 0.2 0.9 0.2 1.8 0.4 2.4 0.6v15.1c-0.8-0.6-1.9-1.1-3.4-1.6s-3.3-0.8-5.5-0.8c-3.7 0-6.8 1.5-9.3 4.6s-3.8 7.8-3.8 14.3v32.1h-14.9v-63.5h14.9v10h0.2c1.4-3.5 3.4-6.2 6.2-8.1s6.1-2.9 10-2.9"/>
				<path d="m533.9 214c0-10.5 3-18.8 8.9-25 5.9-6.1 14.2-9.2 24.7-9.2 9.9 0 17.7 3 23.3 8.9s8.4 13.9 8.4 23.9c0 10.3-3 18.5-8.9 24.6s-14 9.1-24.2 9.1c-9.8 0-17.7-2.9-23.4-8.7-5.9-5.7-8.8-13.6-8.8-23.6m15.6-0.5c0 6.6 1.5 11.7 4.5 15.2s7.3 5.2 12.9 5.2c5.4 0 9.6-1.7 12.4-5.2s4.3-8.7 4.3-15.6c0-6.8-1.5-12-4.4-15.5s-7.1-5.2-12.4-5.2c-5.5 0-9.7 1.8-12.8 5.5-3 3.7-4.5 8.8-4.5 15.6"/>
				<path d="m621.4 198c0 2.1 0.7 3.8 2 5 1.4 1.2 4.4 2.7 9 4.6 6 2.4 10.2 5.1 12.6 8.1s3.6 6.6 3.6 10.8c0 6-2.3 10.8-6.9 14.4s-10.8 5.4-18.6 5.4c-2.6 0-5.5-0.3-8.7-1-3.2-0.6-5.9-1.5-8.1-2.4v-14.7c2.7 1.9 5.6 3.4 8.8 4.5 3.1 1.1 6 1.7 8.5 1.7 3.4 0 5.9-0.5 7.5-1.4s2.4-2.5 2.4-4.8c0-2.1-0.8-3.8-2.5-5.2s-4.8-3.1-9.5-4.9c-5.5-2.3-9.4-4.9-11.7-7.8s-3.5-6.6-3.5-11c0-5.7 2.3-10.4 6.8-14.1s10.4-5.5 17.7-5.5c2.2 0 4.7 0.2 7.5 0.7s5.1 1.1 6.9 1.9v14.2c-2-1.3-4.3-2.4-6.9-3.4-2.6-0.9-5.3-1.4-7.8-1.4-2.8 0-5.1 0.6-6.6 1.7-1.7 1.1-2.5 2.7-2.5 4.6"/>
				<path d="m655.2 214c0-10.5 3-18.8 8.9-25 5.9-6.1 14.2-9.2 24.7-9.2 9.9 0 17.7 3 23.3 8.9s8.4 13.9 8.4 23.9c0 10.3-3 18.5-8.9 24.6s-14 9.1-24.2 9.1c-9.8 0-17.7-2.9-23.4-8.7-5.9-5.7-8.8-13.6-8.8-23.6m15.5-0.5c0 6.6 1.5 11.7 4.5 15.2s7.3 5.2 12.9 5.2c5.4 0 9.6-1.7 12.4-5.2s4.3-8.7 4.3-15.6c0-6.8-1.5-12-4.4-15.5s-7.1-5.2-12.4-5.2c-5.5 0-9.7 1.8-12.8 5.5-3 3.7-4.5 8.8-4.5 15.6"/>
				<path d="m769.8 193.6v32.6c0 6.8 1.6 11.8 4.7 15.2s7.9 5 14.2 5c2.1 0 4.3-0.2 6.5-0.7s3.8-0.9 4.7-1.5v-12.4c-0.9 0.6-2 1.1-3.2 1.5s-2.3 0.6-3.1 0.6c-3 0-5.3-0.8-6.7-2.4s-2.1-4.4-2.1-8.3v-29.7h15.2v-12.2h-15.1v-18.8l-15 4.6v14.3h-22.3v-7.7c0-3.8 0.8-6.7 2.5-8.7s4.1-2.9 7.2-2.9c1.6 0 3 0.2 4.3 0.6 1.2 0.4 2.1 0.8 2.6 1.1v-12.9c-1.1-0.4-2.3-0.6-3.7-0.8s-3-0.3-4.8-0.3c-6.8 0-12.4 2.1-16.7 6.4s-6.5 9.7-6.5 16.4v8.8h-10.6v12.2h10.6v51.3h15.1v-51.3z"/>
				<polygon points="299.6 156.2 321.6 156.2 347.1 221.9 347.5 221.9 374.4 156.2 395.5 156.2 395.5 244.8 380.1 244.8 380.1 175.4 379.9 175.4 352.4 244.8 342.2 244.8 314 175.4 313.8 175.4 313.8 244.8 299.6 244.8"/>
				<path d="m340 117.9c-5.3 3-11.3 4.5-18 4.5-5.1 0-9.6-1.1-13.6-3.4-3.9-2.2-7-5.4-9.1-9.5s-3.2-8.7-3.2-13.8c0-5.4 1.2-10.3 3.5-14.5s5.6-7.6 9.9-10 9.1-3.6 14.5-3.6c2.7 0 5.4 0.3 8.1 0.8s4.9 1.2 6.6 2v8c-4-2.7-9.1-4-15.3-4-3.7 0-7 0.9-10 2.7s-5.3 4.3-6.9 7.4c-1.6 3.2-2.4 6.8-2.4 10.8 0 6.3 1.7 11.3 5 15s7.9 5.5 13.7 5.5c3.7 0 7-0.7 9.8-2.2v-13.7h-11.3v-6.6h18.7z"/>
				<path d="m383.1 104.6h-26.2c0.1 3.8 1.3 6.7 3.3 8.8 2.1 2 4.8 3.1 8.2 3.1 4.5 0 8.4-1.3 11.8-3.9v6.4c-1.5 1-3.4 1.9-5.7 2.5s-4.7 0.9-7.1 0.9c-5.7 0-10.2-1.7-13.3-5.1s-4.7-8.2-4.7-14.4c0-3.8 0.8-7.3 2.3-10.3 1.5-3.1 3.7-5.5 6.4-7.2s5.8-2.6 9.1-2.6c4.9 0 8.8 1.6 11.6 4.8s4.2 7.6 4.2 13.3v3.7zm-7.3-5.7c0-3.3-0.8-5.8-2.3-7.5s-3.6-2.6-6.4-2.6c-2.5 0-4.7 0.9-6.6 2.7s-3 4.3-3.6 7.4z"/>
				<path d="m411.5 121.1c-0.7 0.4-1.6 0.7-2.9 0.9-1.2 0.2-2.3 0.3-3.3 0.3-7 0-10.5-3.9-10.5-11.6v-21h-6.4v-6h6.4v-9l7.3-2.3v11.2h9.3v6h-9.3v19.8c0 2.5 0.4 4.3 1.2 5.3s2.2 1.5 4.3 1.5c1.4 0 2.7-0.4 3.8-1.2v6.1z"/>
				<path d="m447.7 70.3c0 1.2-0.4 2.2-1.3 3.1s-2 1.3-3.3 1.3-2.4-0.4-3.3-1.3c-0.9-0.8-1.3-1.9-1.3-3.2s0.5-2.4 1.4-3.2 2-1.3 3.2-1.3 2.3 0.4 3.2 1.3c1 1 1.4 2 1.4 3.3m-1 51.2h-7.3v-37.8h7.3z"/>
				<path d="m478.4 121.1c-0.7 0.4-1.6 0.7-2.9 0.9-1.2 0.2-2.3 0.3-3.3 0.3-7 0-10.5-3.9-10.5-11.6v-21h-6.4v-6h6.4v-9l7.3-2.3v11.2h9.3v6h-9.3v19.8c0 2.5 0.4 4.3 1.2 5.3s2.2 1.5 4.3 1.5c1.4 0 2.7-0.4 3.8-1.2v6.1z"/>
				<path d="m526.2 71.7c-1.2-0.6-2.5-1-4-1-4.1 0-6.1 2.5-6.1 7.5v5.4h8.6v6h-8.6v31.8h-7.3v-31.7h-6.4v-6h6.4v-5.8c0-4 1.1-7.2 3.4-9.6s5.4-3.6 9.4-3.6c2 0 3.5 0.2 4.7 0.7v6.3z"/>
				<path d="m553.1 91c-0.4-0.3-1.2-0.6-2.2-0.9-1-0.2-1.9-0.4-2.6-0.4-2.6 0-4.7 1.2-6.3 3.5s-2.4 5.3-2.4 9v19.3h-7.3v-37.8h7.3v7.6h0.2c0.8-2.6 2.1-4.6 3.8-6.1s3.7-2.2 5.9-2.2c1.5 0 2.7 0.2 3.5 0.5v7.5z"/>
				<path d="m594.8 102.4c0 6.1-1.8 11-5.3 14.6s-8.2 5.4-14 5.4c-5.7 0-10.3-1.8-13.7-5.3s-5.1-8.2-5.1-14.1c0-6.3 1.8-11.2 5.3-14.8s8.3-5.4 14.4-5.4c5.7 0 10.2 1.7 13.4 5.2 3.4 3.5 5 8.3 5 14.4m-7.5 0.2c0-4.5-1-7.9-2.9-10.2-2-2.3-4.7-3.5-8.3-3.5s-6.5 1.2-8.6 3.7c-2.1 2.4-3.1 5.9-3.1 10.3 0 4.3 1 7.6 3.1 10s4.9 3.6 8.6 3.6 6.5-1.2 8.4-3.5c1.8-2.5 2.8-5.9 2.8-10.4"/>
				<path d="m660.1 121.5h-7.3v-21.5c0-3.9-0.6-6.7-1.8-8.5s-3.3-2.6-6.2-2.6c-2.4 0-4.5 1.1-6.1 3.3-1.7 2.2-2.5 4.9-2.5 7.9v21.4h-7.3v-22.2c0-6.9-2.7-10.4-8-10.4-2.5 0-4.6 1.1-6.2 3.2s-2.4 4.8-2.4 8.1v21.4h-7.3v-37.9h7.3v5.9h0.1c2.7-4.6 6.7-6.8 11.8-6.8 2.4 0 4.6 0.7 6.6 2 1.9 1.3 3.3 3.2 4.2 5.6 1.5-2.6 3.2-4.5 5.3-5.8 2.1-1.2 4.5-1.9 7.3-1.9 8.3 0 12.4 5.1 12.4 15.4v23.4z"/>
			</g>
		</g>
	</g>
</svg>
