<svg viewBox="0 0 190.5 199" xmlns="http://www.w3.org/2000/svg">
    <g fill="#e6e6e6" class="cells">
        <path fill="#f8cd0f" d="M77.099 67.763L58.674 99.511l18.141 31.748h36.566l18.425-31.748-18.141-31.748z" />
        <path d="M135.85 101.73l-18.425 31.748 18.141 31.748h36.566l18.425-31.748-18.141-31.748z" />
        <path d="M77.099 135.61l-18.425 31.748 18.141 31.748h36.566l18.425-31.748-18.141-31.748z" />
        <path d="M18.388 101.68L-.037 133.428l18.141 31.748H54.67l18.425-31.748-18.141-31.748z" />
        <path d="M18.388 33.832L-.037 65.58l18.141 31.748H54.67L73.095 65.58 54.954 33.832z" />
        <path d="M77.099-.09L58.674 31.656l18.141 31.748h36.566l18.425-31.748L113.665-.09z" />
        <path d="M135.85 33.879l-18.425 31.748 18.141 31.748h36.566l18.425-31.748-18.141-31.748z" />
    </g>
    <g class="text">
        <path d="M103.04 99.41q0 2.01-.918 3.606-.919 1.586-2.32 2.436-1.055.639-2.311.89-1.257.251-2.978.251h-5.076V92.197h5.22q1.76 0 3.037.3 1.276.29 2.146.831 1.489.91 2.34 2.456.86 1.537.86 3.626zm-3.838-.029q0-1.421-.522-2.427-.513-1.015-1.634-1.585-.57-.28-1.17-.377-.59-.107-1.789-.107h-.937v9.011h.937q1.325 0 1.944-.116.618-.126 1.208-.445 1.015-.58 1.49-1.547.473-.976.473-2.407z" />
        <path d="M44.825 140.54h-3.838l-.996-2.91h-5.337l-.996 2.91h-3.741l5.317-14.396h4.274zm-5.733-5.55l-1.77-5.162-1.768 5.163z" />
        <path d="M101.57 174.45h-8.43v-2.552h2.358v-9.291H93.14v-2.553h8.431v2.553h-2.359v9.29h2.359z" />
        <path d="M160.05 140.56h-10.383v-14.396h3.712v11.611h6.671z" />
        <path d="M161.03 62.859q0 .967-.338 1.895-.339.918-.967 1.547-.86.85-1.924 1.286-1.054.435-2.63.435h-2.31v4.689h-3.713V58.315h6.11q1.373 0 2.31.241.948.232 1.674.706.87.57 1.324 1.46.464.89.464 2.137zm-3.838.087q0-.61-.329-1.044-.329-.445-.764-.619-.58-.232-1.13-.251-.552-.03-1.47-.03h-.638v4.313h1.063q.947 0 1.557-.116.618-.116 1.034-.464.358-.31.512-.735.165-.435.165-1.054z" />
        <path d="M97.708 28.753q0-.541-.222-.928-.223-.387-.764-.61-.377-.154-.88-.183-.503-.039-1.17-.039h-1.344v3.877h1.141q.89 0 1.49-.087t1.005-.396q.386-.3.56-.657.184-.368.184-.977zm5.791 9.987h-4.534l-3.925-5.279h-1.712v5.279h-3.693V24.344h6.226q1.277 0 2.195.145.918.145 1.72.628.813.484 1.287 1.257.483.764.483 1.924 0 1.595-.744 2.6-.735 1.006-2.108 1.673z" />
        <path d="M44.793 58.315l-5.308 8.827v5.569h-3.712v-5.395l-5.395-9h4.215l3.113 5.568 3.007-5.569z" />
    </g>
</svg>