<?xml version="1.0" encoding="UTF-8" standalone="no"?>
<!-- Generator: Adobe Illustrator 19.0.0, SVG Export Plug-In . SVG Version: 6.00 Build 0)  -->

<svg
   xmlns:dc="http://purl.org/dc/elements/1.1/"
   xmlns:cc="http://creativecommons.org/ns#"
   xmlns:rdf="http://www.w3.org/1999/02/22-rdf-syntax-ns#"
   xmlns:svg="http://www.w3.org/2000/svg"
   xmlns="http://www.w3.org/2000/svg"
   xmlns:sodipodi="http://sodipodi.sourceforge.net/DTD/sodipodi-0.dtd"
   xmlns:inkscape="http://www.inkscape.org/namespaces/inkscape"
   version="1.1"
   id="Layer_1"
   x="0px"
   y="0px"
   viewBox="0 0 24 24"
   xml:space="preserve"
   sodipodi:docname="bookmark.svg"
   width="24"
   height="24"
   inkscape:version="0.92.3 (2405546, 2018-03-11)"><metadata
   id="metadata13258"><rdf:RDF><cc:Work
       rdf:about=""><dc:format>image/svg+xml</dc:format><dc:type
         rdf:resource="http://purl.org/dc/dcmitype/StillImage" /><dc:title></dc:title></cc:Work></rdf:RDF></metadata><defs
   id="defs13256">
		
	</defs><sodipodi:namedview
   pagecolor="#ffffff"
   bordercolor="#666666"
   borderopacity="1"
   objecttolerance="10"
   gridtolerance="10"
   guidetolerance="10"
   inkscape:pageopacity="0"
   inkscape:pageshadow="2"
   inkscape:window-width="1920"
   inkscape:window-height="1017"
   id="namedview13254"
   showgrid="false"
   inkscape:snap-bbox="true"
   inkscape:bbox-paths="true"
   inkscape:bbox-nodes="true"
   inkscape:snap-bbox-edge-midpoints="true"
   inkscape:snap-bbox-midpoints="true"
   inkscape:zoom="10.637527"
   inkscape:cx="8.0852635"
   inkscape:cy="4.1713516"
   inkscape:window-x="-8"
   inkscape:window-y="-8"
   inkscape:window-maximized="1"
   inkscape:current-layer="g13221" />
<g
   id="g13221"
   transform="translate(0,-478.00299)">
	<g
   id="g13217">
			<path
   inkscape:connector-curvature="0"
   id="path13211"
   d="m 20.949914,490.21934 c 0.433973,-0.024 0.866177,0.0643 1.249715,0.25599 0.391856,0.19577 0.846815,0.17608 1.217017,-0.0528 0.364798,-0.2255 0.582597,-0.61692 0.582597,-1.04692 v -5.50239 c 0,-0.26398 -0.21407,-0.47805 -0.478049,-0.47805 h -5.502388 c -0.133854,0 -0.203936,-0.081 -0.233766,-0.12927 -0.02567,-0.0414 -0.07797,-0.15245 -0.01081,-0.28692 0.26589,-0.53207 0.388749,-1.1304 0.355334,-1.73021 -0.09738,-1.74917 -1.545628,-3.17285 -3.297102,-3.24116 -0.946202,-0.0372 -1.840918,0.30318 -2.521277,0.95758 -0.680742,0.65464 -1.055627,1.5352 -1.055627,2.47944 0,0.5412 0.122332,1.05936 0.363747,1.54018 0.06525,0.12993 0.01391,0.2385 -0.01114,0.27918 -0.03026,0.049 -0.101107,0.13118 -0.236013,0.13118 H 5.8694781 c -0.263978,0 -0.478048,0.21407 -0.478048,0.47805 v 5.50234 c 0,0.13385 -0.08098,0.20389 -0.129312,0.23376 -0.0414,0.0257 -0.152402,0.0779 -0.286877,0.0108 -0.532021,-0.2658 -1.1300121,-0.38884 -1.7301066,-0.35538 -1.7491804,0.0974 -3.1729051,1.54558 -3.241266,3.29701 -0.036905,0.94543 0.3031307,1.84091 0.9575315,2.52137 0.6546878,0.68074 1.5352535,1.05568 2.4795432,1.05568 0.541199,0 1.0593559,-0.12234 1.5401769,-0.36375 0.130125,-0.0653 0.238547,-0.0139 0.279181,0.0111 0.049,0.0303 0.131177,0.10111 0.131177,0.23601 v 5.50277 c 0,0.26398 0.21407,0.47805 0.478048,0.47805 h 5.5023409 c 0.430053,0 0.821384,-0.2178 1.046927,-0.5826 0.22889,-0.3702 0.248633,-0.82516 0.05282,-1.21706 -0.191554,-0.38354 -0.280136,-0.8157 -0.255995,-1.24977 0.07027,-1.26224 1.11567,-2.28966 2.379775,-2.33895 0.682605,-0.0265 1.330074,0.21881 1.821317,0.69136 0.49153,0.4727 0.762249,1.10855 0.762249,1.79034 0,0.3909 -0.08815,0.76478 -0.262066,1.11123 -0.195188,0.38865 -0.175779,0.84102 0.05187,1.21008 0.226069,0.36647 0.6185,0.58527 1.0497,0.58527 h 5.502723 c 0.263979,0 0.478049,-0.21407 0.478001,-0.47804 v -5.50268 c 0,-0.4312 -0.218803,-0.82363 -0.585274,-1.0497 -0.369054,-0.22764 -0.821336,-0.24701 -1.210086,-0.0519 -0.346489,0.17392 -0.720371,0.26211 -1.111272,0.26211 -0.681793,0 -1.317598,-0.27071 -1.79034,-0.76229 -0.472503,-0.4913 -0.718029,-1.13814 -0.691354,-1.82137 0.04938,-1.2641 1.076805,-2.3094 2.339045,-2.37967 z m -2.336798,4.86382 c 0.654688,0.68069 1.535253,1.05562 2.479495,1.05562 0.541199,0 1.059356,-0.12233 1.540274,-0.36375 0.129933,-0.0653 0.23845,-0.0139 0.279084,0.0111 0.049,0.0303 0.131177,0.10111 0.131177,0.23601 v 5.02463 h -5.024627 c -0.134953,0 -0.205752,-0.0822 -0.236013,-0.13118 -0.02505,-0.0407 -0.0763,-0.1492 -0.01109,-0.27914 0.241318,-0.48086 0.363698,-0.99907 0.363698,-1.54022 0,-0.94424 -0.374885,-1.82481 -1.055627,-2.47945 -0.64699,-0.62232 -1.488356,-0.9603 -2.382355,-0.9603 -0.04613,0 -0.09255,8e-4 -0.138969,0.002 -1.751427,0.0683 -3.199723,1.49199 -3.297149,3.24117 -0.03337,0.59981 0.08954,1.19813 0.35538,1.73016 0.06717,0.13457 0.01482,0.24552 -0.01081,0.28696 -0.02988,0.0483 -0.09991,0.12927 -0.233766,0.12927 H 6.3474791 v -5.02463 c 0,-0.4312 -0.218803,-0.82363 -0.585275,-1.0497 -0.369006,-0.22759 -0.821383,-0.24701 -1.210084,-0.0519 -0.3464901,0.17392 -0.7203242,0.26212 -1.1112247,0.26212 -0.6817931,0 -1.3176457,-0.27072 -1.7904359,-0.7623 -0.4724556,-0.49134 -0.7179813,-1.13814 -0.6912585,-1.82137 0.049382,-1.2641 1.0768048,-2.3094 2.3390447,-2.37967 0.4338291,-0.024 0.8661764,0.0643 1.2496674,0.25599 0.391808,0.19571 0.846767,0.17607 1.217016,-0.0528 0.364847,-0.22554 0.582646,-0.61692 0.582646,-1.04697 v -5.02434 h 5.0246269 c 0.4312,0 0.82363,-0.21881 1.049699,-0.58528 0.227647,-0.36895 0.247056,-0.82138 0.05191,-1.21008 -0.173914,-0.34649 -0.262114,-0.72032 -0.262114,-1.11123 0,-0.68179 0.270719,-1.31759 0.762248,-1.79033 0.491291,-0.47246 1.138044,-0.71827 1.821319,-0.69136 1.264152,0.0493 2.309452,1.07671 2.379726,2.33895 0.02419,0.43412 -0.0643,0.86623 -0.255948,1.24981 -0.195808,0.39185 -0.176065,0.84682 0.05282,1.21701 0.225496,0.36481 0.616922,0.58261 1.046927,0.58261 h 5.02434 v 5.02429 c 0,0.13385 -0.08098,0.20394 -0.129265,0.23376 -0.04149,0.0257 -0.152449,0.0779 -0.286925,0.0108 -0.53202,-0.2658 -1.129916,-0.38884 -1.730106,-0.35538 -1.74918,0.0974 -3.172905,1.54558 -3.241266,3.29706 -0.03695,0.94543 0.303179,1.84091 0.957531,2.52137 z"
   style="stroke-width:0.04780487" />
			
			
		</g>
</g>
<g
   id="g13223"
   transform="translate(0,-478.00299)">
</g>
<g
   id="g13225"
   transform="translate(0,-478.00299)">
</g>
<g
   id="g13227"
   transform="translate(0,-478.00299)">
</g>
<g
   id="g13229"
   transform="translate(0,-478.00299)">
</g>
<g
   id="g13231"
   transform="translate(0,-478.00299)">
</g>
<g
   id="g13233"
   transform="translate(0,-478.00299)">
</g>
<g
   id="g13235"
   transform="translate(0,-478.00299)">
</g>
<g
   id="g13237"
   transform="translate(0,-478.00299)">
</g>
<g
   id="g13239"
   transform="translate(0,-478.00299)">
</g>
<g
   id="g13241"
   transform="translate(0,-478.00299)">
</g>
<g
   id="g13243"
   transform="translate(0,-478.00299)">
</g>
<g
   id="g13245"
   transform="translate(0,-478.00299)">
</g>
<g
   id="g13247"
   transform="translate(0,-478.00299)">
</g>
<g
   id="g13249"
   transform="translate(0,-478.00299)">
</g>
<g
   id="g13251"
   transform="translate(0,-478.00299)">
</g>
</svg>