<svg version="1.1" viewBox="0 0 24 24" xmlns="http://www.w3.org/2000/svg">
	<title>bookmark2</title>
	<path d="m20.188 0.1795c0.234 0 0.469 0.047 0.688 0.141 0.688 0.266 1.125 0.906 1.125 1.609v20.141c0 0.703-0.438 1.344-1.125 1.609-0.219 0.094-0.453 0.125-0.688 0.125-0.484 0-0.938-0.172-1.297-0.5l-6.891-6.625-6.891 6.625c-0.359 0.328-0.812 0.516-1.297 0.516-0.234 0-0.469-0.047-0.688-0.141-0.688-0.266-1.125-0.906-1.125-1.609v-20.141c0-0.703 0.438-1.344 1.125-1.609 0.219-0.094 0.453-0.141 0.688-0.141h16.375z"/>
</svg>
