<?xml version="1.0" encoding="UTF-8"?>
<svg width="160" height="46" version="1.1" viewBox="0 0 42.333 12.171" xmlns="http://www.w3.org/2000/svg" xmlns:xlink="http://www.w3.org/1999/xlink">
 <defs>
  <clipPath id="SVGID_2_">
   <use width="100%" height="100%" xlink:href="#SVGID_1_"/>
  </clipPath>
  <clipPath id="SVGID_4_">
   <use width="100%" height="100%" xlink:href="#SVGID_3_"/>
  </clipPath>
  <clipPath id="SVGID_6_">
   <use width="100%" height="100%" xlink:href="#SVGID_5_"/>
  </clipPath>
  <clipPath id="SVGID_14_" class="st6" clip-path="url(#SVGID_13_)">
   <use width="100%" height="100%" xlink:href="#SVGID_10_"/>
  </clipPath>
  <clipPath id="SVGID_16_">
   <use width="100%" height="100%" xlink:href="#SVGID_15_"/>
  </clipPath>
  <radialGradient id="SVGID_17_" cx="91.332" cy="46.354" r="570.08" gradientTransform="matrix(.73673 0 0 -.73673 8.1557 121.57)" gradientUnits="userSpaceOnUse">
   <stop stop-color="#fff" stop-opacity=".1" offset="0"/>
   <stop stop-color="#fff" stop-opacity="0" offset="1"/>
  </radialGradient>
  <path id="SVGID_1_" d="m23.89 27.57v87.67c0 4.13 3.38 7.51 7.51 7.51h95.18c4.13 0 7.51-3.38 7.51-7.51v-87.67zm67.63 20.04h-25.04c-2.77 0-5.01-2.24-5.01-5.01s2.24-5.01 5.01-5.01h25.05c2.77 0 5.01 2.24 5.01 5.01-0.01 2.77-2.25 5.01-5.02 5.01z"/>
  <path id="SVGID_3_" d="m23.89 27.57v87.67c0 4.13 3.38 7.51 7.51 7.51h95.18c4.13 0 7.51-3.38 7.51-7.51v-87.67zm67.63 20.04h-25.04c-2.77 0-5.01-2.24-5.01-5.01s2.24-5.01 5.01-5.01h25.05c2.77 0 5.01 2.24 5.01 5.01-0.01 2.77-2.25 5.01-5.02 5.01z"/>
  <path id="SVGID_5_" d="m23.89 27.57v87.67c0 4.13 3.38 7.51 7.51 7.51h95.18c4.13 0 7.51-3.38 7.51-7.51v-87.67zm67.63 20.04h-25.04c-2.77 0-5.01-2.24-5.01-5.01s2.24-5.01 5.01-5.01h25.05c2.77 0 5.01 2.24 5.01 5.01-0.01 2.77-2.25 5.01-5.02 5.01z"/>
  <circle id="SVGID_7_" cx="79" cy="115.24" r="47.59"/>
  <circle id="SVGID_8_" cx="79" cy="115.24" r="47.59"/>
  <circle id="SVGID_9_" cx="79" cy="115.24" r="47.59"/>
  <circle id="SVGID_10_" cx="79" cy="115.24" r="47.59"/>
  <path id="SVGID_15_" d="m23.89 27.57v87.67c0 4.13 3.38 7.51 7.51 7.51h95.18c4.13 0 7.51-3.38 7.51-7.51v-87.67zm67.63 20.04h-25.04c-2.77 0-5.01-2.24-5.01-5.01s2.24-5.01 5.01-5.01h25.05c2.77 0 5.01 2.24 5.01 5.01-0.01 2.77-2.25 5.01-5.02 5.01z"/>
 </defs>
 <g transform="translate(.67919 -283.11)">
  <rect x="-.67919" y="283.11" width="42.333" height="12.171" fill="#fff"/>
  <g transform="matrix(.089783 0 0 .089783 -1.213 282.44)" stroke-width="2.9469">
   <g fill="#5f6368">
    <path class="st0" d="m173.13 106.16c-3.9 0-7.17-1.32-9.8-3.96-2.64-2.64-3.96-5.93-3.96-9.88s1.32-7.24 3.96-9.88 5.91-3.96 9.8-3.96c4 0 7.24 1.44 9.73 4.33l-2.37 2.29c-1.8-2.24-4.25-3.37-7.36-3.37-2.89 0-5.32 0.97-7.31 2.92s-2.98 4.5-2.98 7.66 0.99 5.71 2.98 7.66c1.98 1.95 4.42 2.92 7.31 2.92 3.18 0 5.9-1.28 8.14-3.85l2.37 2.37c-1.21 1.46-2.73 2.61-4.55 3.46-1.83 0.86-3.81 1.29-5.96 1.29z"/>
    <path class="st0" d="m190.08 79.08v8.36l-0.15 2.52h0.15c0.49-0.86 1.27-1.6 2.33-2.2s2.19-0.91 3.4-0.91c2.24 0 3.96 0.69 5.14 2.07s1.78 3.23 1.78 5.55v11.1h-3.4v-10.58c0-3.35-1.49-5.03-4.48-5.03-1.41 0-2.55 0.56-3.44 1.68s-1.33 2.42-1.33 3.9v10.03h-3.4v-26.49z"/>
    <path class="st0" d="m210.13 105.57h-3.4v-18.13h3.26v2.96h0.15c0.35-0.99 1.05-1.8 2.13-2.44 1.07-0.64 2.11-0.96 3.13-0.96 1.01 0 1.86 0.15 2.55 0.44l-1.3 3.18c-0.44-0.17-1.05-0.26-1.81-0.26-1.23 0-2.33 0.49-3.27 1.46-0.95 0.97-1.42 2.25-1.42 3.83v9.92z"/>
    <path class="st0" d="m220.64 89.6c1.75-1.84 3.98-2.76 6.7-2.76s4.95 0.92 6.7 2.76 2.63 4.14 2.63 6.9-0.88 5.06-2.63 6.9-3.98 2.76-6.7 2.76-4.95-0.92-6.7-2.76-2.63-4.14-2.63-6.9 0.88-5.06 2.63-6.9zm2.53 11.66c1.17 1.2 2.56 1.79 4.16 1.79s2.99-0.6 4.16-1.79c1.17-1.2 1.76-2.78 1.76-4.75s-0.59-3.56-1.76-4.75c-1.17-1.2-2.56-1.79-4.16-1.79s-2.99 0.6-4.16 1.79-1.76 2.78-1.76 4.75c0.01 1.97 0.59 3.55 1.76 4.75z"/>
    <path class="st0" d="m239.4 105.57v-18.13h3.26v2.52h0.15c0.52-0.86 1.31-1.6 2.39-2.2 1.07-0.6 2.14-0.91 3.2-0.91 2.81 0 4.72 1.16 5.73 3.48 1.48-2.32 3.59-3.48 6.33-3.48 2.15 0 3.76 0.68 4.85 2.05s1.63 3.23 1.63 5.57v11.1h-3.4v-10.58c0-1.83-0.33-3.12-1-3.88s-1.68-1.15-3.03-1.15c-1.33 0-2.44 0.57-3.31 1.7-0.88 1.13-1.31 2.43-1.31 3.88v10.03h-3.4v-10.58c0-1.83-0.33-3.12-1-3.88s-1.68-1.15-3.03-1.15c-1.33 0-2.44 0.57-3.31 1.7-0.88 1.13-1.31 2.43-1.31 3.88v10.03z"/>
    <path class="st0" d="m279.14 106.16c-2.74 0-4.96-0.91-6.68-2.74-1.71-1.82-2.57-4.13-2.57-6.92 0-2.64 0.83-4.91 2.5-6.81s3.79-2.85 6.38-2.85c2.69 0 4.84 0.88 6.46 2.63s2.42 4.09 2.42 7.03l-0.04 0.63h-14.32c0.1 1.83 0.71 3.27 1.83 4.33s2.44 1.59 3.94 1.59c2.44 0 4.09-1.04 4.96-3.11l3.03 1.26c-0.59 1.41-1.57 2.58-2.92 3.53-1.36 0.96-3.02 1.43-4.99 1.43zm4.88-11.84c-0.07-1.04-0.55-2.02-1.42-2.96-0.88-0.94-2.18-1.41-3.9-1.41-1.26 0-2.35 0.4-3.27 1.18s-1.56 1.85-1.91 3.18h10.5z"/>
    <path class="st0" d="m328.87 79.08-7.07 26.49h-3.48l-5.7-17.46h-0.15l-5.7 17.46h-3.48l-7.36-26.49h3.55l5.59 20.83h0.15l5.74-17.28h3.18l5.74 17.28h0.15l5.29-20.83z"/>
    <path class="st0" d="m337.71 106.16c-2.74 0-4.96-0.91-6.68-2.74-1.71-1.82-2.57-4.13-2.57-6.92 0-2.64 0.83-4.91 2.5-6.81s3.79-2.85 6.38-2.85c2.69 0 4.84 0.88 6.46 2.63s2.42 4.09 2.42 7.03l-0.04 0.63h-14.32c0.1 1.83 0.71 3.27 1.83 4.33s2.44 1.59 3.94 1.59c2.44 0 4.09-1.04 4.96-3.11l3.03 1.26c-0.59 1.41-1.57 2.58-2.92 3.53-1.35 0.96-3.02 1.43-4.99 1.43zm4.88-11.84c-0.07-1.04-0.55-2.02-1.42-2.96-0.88-0.94-2.18-1.41-3.9-1.41-1.26 0-2.35 0.4-3.27 1.18s-1.56 1.85-1.91 3.18h10.5z"/>
    <path class="st0" d="m358.91 106.16c-1.38 0-2.62-0.3-3.72-0.89s-1.92-1.33-2.46-2.22h-0.15v2.52h-3.26v-26.49h3.4v8.36l-0.15 2.52h0.15c0.54-0.89 1.36-1.63 2.46-2.22s2.34-0.89 3.72-0.89c2.34 0 4.37 0.92 6.07 2.77s2.55 4.14 2.55 6.88-0.85 5.03-2.55 6.88c-1.69 1.86-3.72 2.78-6.06 2.78zm-0.56-3.11c1.58 0 2.94-0.6 4.07-1.79s1.7-2.78 1.7-4.75-0.57-3.56-1.7-4.75-2.49-1.79-4.07-1.79c-1.6 0-2.97 0.59-4.09 1.78-1.12 1.18-1.68 2.77-1.68 4.77s0.56 3.59 1.68 4.77c1.13 1.17 2.49 1.76 4.09 1.76z"/>
    <path class="st0" d="m385.73 106.16c-1.92 0-3.8-0.63-5.64-1.89s-3.04-3.02-3.61-5.29l3.11-1.26c0.37 1.46 1.13 2.68 2.28 3.68s2.44 1.5 3.87 1.5c1.48 0 2.74-0.39 3.79-1.17s1.57-1.83 1.57-3.16c0-1.48-0.52-2.62-1.57-3.42s-2.71-1.55-4.98-2.24c-2.34-0.74-4.12-1.7-5.33-2.87s-1.81-2.67-1.81-4.5c0-1.9 0.75-3.55 2.26-4.96 1.5-1.41 3.46-2.11 5.88-2.11 2.24 0 4.07 0.56 5.48 1.68s2.32 2.35 2.74 3.68l-3.11 1.29c-0.22-0.84-0.77-1.62-1.65-2.33s-2-1.07-3.38-1.07c-1.31 0-2.42 0.36-3.35 1.09s-1.39 1.63-1.39 2.72c0 0.99 0.43 1.82 1.28 2.5s2.1 1.29 3.76 1.83c1.31 0.42 2.4 0.83 3.27 1.22 0.88 0.39 1.76 0.92 2.66 1.57s1.58 1.47 2.04 2.44 0.68 2.1 0.68 3.38-0.27 2.43-0.8 3.44-1.23 1.81-2.11 2.41c-0.88 0.59-1.82 1.04-2.83 1.35-1.01 0.34-2.05 0.49-3.11 0.49z"/>
    <path class="st0" d="m405.05 105.86c-1.9 0-3.35-0.5-4.35-1.52s-1.5-2.44-1.5-4.29v-9.51h-3.18v-3.11h3.18v-5.55h3.4v5.55h4.44v3.11h-4.44v9.25c0 1.97 0.81 2.96 2.44 2.96 0.62 0 1.13-0.1 1.55-0.3l1.18 2.92c-0.72 0.33-1.64 0.49-2.72 0.49z"/>
    <path class="st0" d="m411.71 89.6c1.75-1.84 3.98-2.76 6.7-2.76 2.71 0 4.95 0.92 6.7 2.76s2.63 4.14 2.63 6.9-0.88 5.06-2.63 6.9-3.98 2.76-6.7 2.76c-2.71 0-4.95-0.92-6.7-2.76s-2.63-4.14-2.63-6.9 0.88-5.06 2.63-6.9zm2.53 11.66c1.17 1.2 2.56 1.79 4.16 1.79s2.99-0.6 4.16-1.79c1.17-1.2 1.76-2.78 1.76-4.75s-0.59-3.56-1.76-4.75c-1.17-1.2-2.56-1.79-4.16-1.79s-2.99 0.6-4.16 1.79-1.76 2.78-1.76 4.75c0.01 1.97 0.59 3.55 1.76 4.75z"/>
    <path class="st0" d="m433.87 105.57h-3.4v-18.13h3.26v2.96h0.15c0.35-0.99 1.05-1.8 2.13-2.44 1.07-0.64 2.12-0.96 3.13-0.96s1.86 0.15 2.55 0.44l-1.29 3.18c-0.44-0.17-1.05-0.26-1.81-0.26-1.23 0-2.33 0.49-3.27 1.46-0.95 0.97-1.42 2.25-1.42 3.83v9.92z"/>
    <path class="st0" d="m451 106.16c-2.74 0-4.96-0.91-6.68-2.74-1.71-1.82-2.57-4.13-2.57-6.92 0-2.64 0.83-4.91 2.5-6.81s3.79-2.85 6.38-2.85c2.69 0 4.84 0.88 6.46 2.63s2.42 4.09 2.42 7.03l-0.04 0.63h-14.32c0.1 1.83 0.71 3.27 1.83 4.33s2.44 1.59 3.94 1.59c2.44 0 4.09-1.04 4.96-3.11l3.03 1.26c-0.59 1.41-1.57 2.58-2.92 3.53-1.35 0.96-3.02 1.43-4.99 1.43zm4.88-11.84c-0.07-1.04-0.55-2.02-1.42-2.96-0.88-0.94-2.18-1.41-3.9-1.41-1.26 0-2.35 0.4-3.27 1.18s-1.56 1.85-1.91 3.18h10.5z"/>
    <path class="st0" d="m161.34 64.44 7.56-20.05h2.91l7.56 20.05h-2.86l-1.93-5.43h-8.43l-1.96 5.43zm5.68-7.84h6.66l-3.28-9.04h-0.11z"/>
    <path class="st0" d="m183.96 64.44-5.54-13.72h2.8l4.03 10.64h0.06l4.09-10.64h2.74l-5.6 13.72z"/>
    <path class="st0" d="m197.88 64.89c-1.46 0-2.67-0.42-3.65-1.26s-1.47-1.95-1.47-3.33c0-1.49 0.58-2.67 1.74-3.51 1.16-0.85 2.58-1.27 4.28-1.27 1.51 0 2.75 0.28 3.72 0.84v-0.39c0-1.01-0.35-1.81-1.04-2.42s-1.54-0.91-2.55-0.91c-0.75 0-1.42 0.18-2.03 0.53-0.61 0.36-1.02 0.84-1.25 1.46l-2.35-1.01c0.32-0.82 0.94-1.58 1.88-2.28 0.93-0.7 2.17-1.05 3.7-1.05 1.75 0 3.21 0.51 4.37 1.54s1.74 2.47 1.74 4.34v8.29h-2.46v-1.9h-0.11c-1.04 1.54-2.55 2.33-4.52 2.33zm0.42-2.36c1.06 0 2.03-0.4 2.9-1.19s1.3-1.73 1.3-2.81c-0.73-0.6-1.82-0.9-3.28-0.9-1.25 0-2.19 0.27-2.83 0.81-0.63 0.54-0.95 1.18-0.95 1.9 0 0.67 0.29 1.2 0.87 1.6s1.24 0.59 1.99 0.59z"/>
    <path class="st0" d="m210.67 47.27c-0.35 0.35-0.78 0.53-1.29 0.53s-0.93-0.18-1.29-0.53c-0.35-0.35-0.53-0.78-0.53-1.29s0.18-0.93 0.53-1.29c0.35-0.35 0.78-0.53 1.29-0.53s0.93 0.18 1.29 0.53c0.35 0.36 0.53 0.78 0.53 1.29s-0.17 0.94-0.53 1.29zm0 17.17h-2.58v-13.72h2.58z"/>
    <path class="st0" d="m216.61 64.44h-2.58v-20.05h2.58z"/>
    <path class="st0" d="m223.94 64.89c-1.46 0-2.67-0.42-3.65-1.26s-1.47-1.95-1.47-3.33c0-1.49 0.58-2.67 1.74-3.51 1.16-0.85 2.58-1.27 4.28-1.27 1.51 0 2.75 0.28 3.72 0.84v-0.39c0-1.01-0.35-1.81-1.04-2.42s-1.54-0.91-2.55-0.91c-0.75 0-1.42 0.18-2.03 0.53-0.61 0.36-1.02 0.84-1.25 1.46l-2.35-1.01c0.32-0.82 0.94-1.58 1.88-2.28 0.93-0.7 2.17-1.05 3.7-1.05 1.75 0 3.21 0.51 4.37 1.54s1.74 2.47 1.74 4.34v8.29h-2.46v-1.9h-0.11c-1.04 1.54-2.54 2.33-4.52 2.33zm0.42-2.36c1.06 0 2.03-0.4 2.9-1.19s1.3-1.73 1.3-2.81c-0.73-0.6-1.82-0.9-3.28-0.9-1.25 0-2.19 0.27-2.83 0.81-0.63 0.54-0.95 1.18-0.95 1.9 0 0.67 0.29 1.2 0.87 1.6s1.25 0.59 1.99 0.59z"/>
    <path class="st0" d="m241.19 64.89c-1.05 0-1.98-0.22-2.81-0.67s-1.45-1.01-1.86-1.68h-0.11v1.9h-2.46v-20.05h2.58v6.33l-0.11 1.9h0.11c0.41-0.67 1.03-1.23 1.86-1.68s1.77-0.67 2.81-0.67c1.77 0 3.3 0.7 4.59 2.1s1.93 3.14 1.93 5.21-0.64 3.81-1.93 5.21-2.83 2.1-4.6 2.1zm-0.42-2.36c1.19 0 2.22-0.45 3.08-1.36s1.29-2.1 1.29-3.6c0-1.49-0.43-2.69-1.29-3.6s-1.89-1.36-3.08-1.36c-1.21 0-2.24 0.45-3.09 1.34-0.85 0.9-1.27 2.1-1.27 3.61s0.42 2.72 1.27 3.61c0.85 0.92 1.88 1.36 3.09 1.36z"/>
    <path class="st0" d="m252.5 64.44h-2.58v-20.05h2.58z"/>
    <path class="st0" d="m261.72 64.89c-2.07 0-3.76-0.69-5.05-2.07-1.3-1.38-1.95-3.13-1.95-5.24 0-2 0.63-3.71 1.89-5.15s2.87-2.16 4.83-2.16c2.03 0 3.66 0.66 4.89 1.99s1.83 3.1 1.83 5.32l-0.03 0.48h-10.84c0.07 1.38 0.54 2.47 1.39 3.28 0.85 0.8 1.84 1.2 2.98 1.2 1.85 0 3.1-0.78 3.75-2.35l2.3 0.95c-0.45 1.06-1.19 1.96-2.21 2.67-1.03 0.72-2.29 1.08-3.78 1.08zm3.69-8.96c-0.06-0.78-0.42-1.53-1.08-2.24s-1.65-1.06-2.95-1.06c-0.95 0-1.78 0.3-2.48 0.9s-1.18 1.4-1.44 2.41h7.95z"/>
    <path class="st0" d="m279.47 47.27c-0.35 0.35-0.78 0.53-1.29 0.53s-0.93-0.18-1.29-0.53-0.53-0.78-0.53-1.29 0.18-0.93 0.53-1.29c0.35-0.35 0.78-0.53 1.29-0.53s0.93 0.18 1.29 0.53c0.35 0.36 0.53 0.78 0.53 1.29s-0.18 0.94-0.53 1.29zm0 17.17h-2.58v-13.72h2.58z"/>
    <path class="st0" d="m285.29 50.72v1.9h0.11c0.37-0.65 0.96-1.21 1.76-1.67s1.66-0.69 2.58-0.69c1.7 0 3 0.52 3.89 1.57 0.9 1.04 1.34 2.45 1.34 4.2v8.4h-2.58v-8.01c0-2.54-1.13-3.81-3.39-3.81-1.06 0-1.93 0.42-2.6 1.27s-1.01 1.83-1.01 2.95v7.59h-2.58v-13.7z"/>
    <path class="st0" d="m310.1 64.66c-1.44 0-2.53-0.38-3.29-1.15s-1.13-1.85-1.13-3.25v-7.2h-2.41v-2.35h2.41v-4.2h2.58v4.2h3.36v2.35h-3.36v7c0 1.49 0.62 2.24 1.85 2.24 0.47 0 0.86-0.07 1.18-0.22l0.9 2.21c-0.58 0.25-1.27 0.37-2.09 0.37z"/>
    <path class="st0" d="m316.79 44.39v6.33l-0.11 1.9h0.11c0.37-0.65 0.96-1.21 1.76-1.67s1.66-0.69 2.58-0.69c1.7 0 3 0.52 3.89 1.57 0.9 1.04 1.34 2.45 1.34 4.2v8.4h-2.58v-8.01c0-2.54-1.13-3.81-3.39-3.81-1.06 0-1.93 0.42-2.6 1.27s-1.01 1.83-1.01 2.95v7.59h-2.58v-20.03z"/>
    <path class="st0" d="m335.6 64.89c-2.07 0-3.76-0.69-5.05-2.07-1.3-1.38-1.95-3.13-1.95-5.24 0-2 0.63-3.71 1.89-5.15s2.87-2.16 4.83-2.16c2.03 0 3.66 0.66 4.89 1.99s1.83 3.1 1.83 5.32l-0.03 0.48h-10.84c0.07 1.38 0.54 2.47 1.39 3.28 0.85 0.8 1.84 1.2 2.98 1.2 1.85 0 3.1-0.78 3.75-2.35l2.3 0.95c-0.45 1.06-1.19 1.96-2.21 2.67-1.02 0.72-2.28 1.08-3.78 1.08zm3.7-8.96c-0.06-0.78-0.42-1.53-1.08-2.24s-1.65-1.06-2.95-1.06c-0.95 0-1.78 0.3-2.48 0.9s-1.18 1.4-1.44 2.41h7.95z"/>
   </g>
   <clipPath>
    <use width="100%" height="100%" xlink:href="#SVGID_1_"/>
   </clipPath>
   <path class="st1" d="m23.89 27.57h110.21v95.18h-110.21z" clip-path="url(#SVGID_2_)" fill="#eee" stroke-width="2.9469"/>
   <clipPath>
    <use width="100%" height="100%" xlink:href="#SVGID_3_"/>
   </clipPath>
   <path class="st2" d="m91.52 37.59h-25.04c-2.77 0-5.01 2.24-5.01 5.01s2.24 5.01 5.01 5.01h25.05c2.77 0 5.01-2.24 5.01-5.01-0.01-2.77-2.25-5.01-5.02-5.01z" clip-path="url(#SVGID_4_)" fill="#fff" stroke-width="2.9469"/>
   <clipPath>
    <use width="100%" height="100%" xlink:href="#SVGID_5_"/>
   </clipPath>
   <g class="st3" clip-path="url(#SVGID_6_)" stroke-width="2.9469">
    <clipPath id="SVGID_11_">
     <use width="100%" height="100%" xlink:href="#SVGID_7_"/>
    </clipPath>
    <clipPath id="SVGID_12_" class="st4" clip-path="url(#SVGID_11_)">
     <use width="100%" height="100%" xlink:href="#SVGID_8_"/>
    </clipPath>
    <clipPath id="SVGID_13_" class="st5" clip-path="url(#SVGID_12_)">
     <use width="100%" height="100%" xlink:href="#SVGID_9_"/>
    </clipPath>
    <clipPath class="st6" clip-path="url(#SVGID_13_)">
     <use width="100%" height="100%" xlink:href="#SVGID_10_"/>
    </clipPath>
    <g stroke-width="2.9469">
     <path class="st7" d="m38.97 67.65v58.41h21.3l18.73-32.46h47.59v-25.95zv58.41h21.3l18.73-32.46h47.59v-25.95z" clip-path="url(#SVGID_14_)" fill="#db4437"/>
     <path class="st8" d="m31.41 162.83h45.3l21.03-21.03v-15.74l-37.47-0.01-28.86-49.48zh45.3l21.03-21.03v-15.74l-37.47-0.01-28.86-49.48z" clip-path="url(#SVGID_14_)" fill="#0f9d58"/>
     <path class="st9" d="m79 93.6 18.74 32.45-21.02 36.78h49.88v-69.23zl18.74 32.45-21.02 36.78h49.88v-69.23z" clip-path="url(#SVGID_14_)" fill="#ffcd40"/>
     <g class="st10" clip-path="url(#SVGID_14_)">
      <circle class="st11" cx="79" cy="115.24" r="21.64" fill="#f1f1f1"/>
      <circle class="st12" cx="79" cy="115.24" r="17.31" fill="#4285f4"/>
     </g>
    </g>
    <clipPath>
     <use width="100%" height="100%" xlink:href="#SVGID_15_"/>
    </clipPath>
    <path class="st13" d="m23.89 27.57h110.21v47.59h-110.21z" clip-path="url(#SVGID_16_)" fill="#212121" fill-opacity=".05" stroke-width="2.9469"/>
    <path class="st14" d="m23.89 74.54h110.21v0.63h-110.21z" fill="#212121" fill-opacity=".02"/>
    <path class="st15" d="m23.89 75.16h110.21v0.63h-110.21z" fill="#fff" fill-opacity=".05"/>
    <path class="st14" d="m91.52 47.61h-25.04c-2.66 0-4.83-2.08-4.99-4.7-0.01 0.11-0.02 0.21-0.02 0.31 0 2.77 2.24 5.01 5.01 5.01h25.05c2.77 0 5.01-2.24 5.01-5.01 0-0.11-0.01-0.21-0.02-0.31-0.16 2.62-2.33 4.7-5 4.7zm-67.63-20.04v0.63h110.21v-0.63z" fill="#212121" fill-opacity=".02"/>
    <path class="st16" d="m66.48 37.59h25.05c2.66 0 4.83 2.08 4.99 4.7 0.01-0.11 0.02-0.21 0.02-0.31 0-2.77-2.24-5.01-5.01-5.01h-25.05c-2.77 0-5.01 2.24-5.01 5.01 0 0.11 0.01 0.21 0.02 0.31 0.15-2.62 2.32-4.7 4.99-4.7zm60.11 84.54h-95.18c-4.13 0-7.51-3.38-7.51-7.51v0.63c0 4.13 3.38 7.51 7.51 7.51h95.18c4.13 0 7.51-3.38 7.51-7.51v-0.63c0.01 4.13-3.38 7.51-7.51 7.51z" fill="#231f20" fill-opacity=".1"/>
    <path class="st17" d="m23.89 27.57v87.67c0 4.13 3.38 7.51 7.51 7.51h95.18c4.13 0 7.51-3.38 7.51-7.51v-87.67zm67.63 20.04h-25.04c-2.77 0-5.01-2.24-5.01-5.01s2.24-5.01 5.01-5.01h25.05c2.77 0 5.01 2.24 5.01 5.01-0.01 2.77-2.25 5.01-5.02 5.01z" fill="url(#SVGID_17_)"/>
    <path class="st18" d="m18.89 15.05h120.23v120.23h-120.23z" fill="none"/>
   </g>
  </g>
 </g>
</svg>
