<svg version="1.1" viewBox="0 0 24 24" xmlns="http://www.w3.org/2000/svg">
	<g transform="translate(0 -478)">
		<g transform="matrix(.96632 0 0 .95847 .404 20.347)" stroke="#000">
			<path transform="matrix(1.0349 0 0 1.0433 -.41809 477.48)" d="m14.736 0.50195c-0.91433-0.035655-1.7781 0.29074-2.4355 0.91797-0.65781 0.62746-1.0195 1.4719-1.0195 2.377 0 0.51873 0.11828 1.0138 0.35156 1.4746 0.063053 0.12453 0.012488 0.22859-0.011718 0.26758-0.029241 0.046965-0.098154 0.12695-0.22852 0.12695h-5.3164c-0.25509 0-0.46289 0.20401-0.46289 0.45703v5.2754c0 0.12829-0.078296 0.19403-0.125 0.22266-0.040005 0.024633-0.1474 0.076032-0.27734 0.011718-0.5141-0.25476-1.092-0.37387-1.6719-0.3418-1.6903 0.093355-3.0648 1.4815-3.1309 3.1602-0.035662 0.90617 0.29342 1.7658 0.92578 2.418 0.63264 0.65247 1.482 1.0117 2.3945 1.0117 0.52297 0 1.0237-0.11822 1.4883-0.34961 0.12574-0.062588 0.23027-0.012243 0.26953 0.011719 0.04735 0.029042 0.12695 0.095311 0.12695 0.22461v5.2754c0 0.25302 0.2078 0.45703 0.46289 0.45703h5.3164c0.41557 0 0.79377-0.20894 1.0117-0.55859 0.22118-0.35483 0.24-0.79039 0.050781-1.166-0.1851-0.36761-0.26942-0.78122-0.24609-1.1973 0.067903-1.2098 1.0773-2.1949 2.2988-2.2422 0.65961-0.0254 1.2851 0.20918 1.7598 0.66211 0.47497 0.45307 0.73633 1.0633 0.73633 1.7168 0 0.37467-0.083895 0.73239-0.25195 1.0645-0.18861 0.37251-0.17115 0.80642 0.048828 1.1602 0.21845 0.35125 0.59895 0.56055 1.0156 0.56055h5.3164c0.25509 0 0.46294-0.20402 0.46289-0.45703v-5.2754c0-0.41329-0.21228-0.78918-0.56641-1.0059-0.35662-0.21819-0.79427-0.23584-1.1699-0.048828-0.33482 0.1667-0.69648 0.25-1.0742 0.25-0.65883 0-1.2717-0.2593-1.7285-0.73047-0.45659-0.4709-0.69375-1.0893-0.66797-1.7441 0.047717-1.2116 1.04-2.2139 2.2598-2.2812 0.41935-0.023003 0.83641 0.060411 1.207 0.24414 0.37866 0.18764 0.81805 0.16859 1.1758-0.050781 0.35251-0.21614 0.56445-0.58981 0.56445-1.002v-5.2754c0-0.25302-0.2078-0.45703-0.46289-0.45703h-5.3164c-0.12934 0-0.19774-0.078734-0.22656-0.125-0.024806-0.039681-0.074664-0.14455-0.009766-0.27344 0.25693-0.50998 0.37604-1.0833 0.34375-1.6582-0.0941-1.6765-1.495-3.0419-3.1875-3.1074zm-0.035156 0.91406c1.2216 0.047253 2.2309 1.0324 2.2988 2.2422 0.023375 0.41609-0.060901 0.83157-0.24609 1.1992-0.18921 0.37558-0.17039 0.8112 0.050782 1.166 0.2179 0.34966 0.5962 0.55859 1.0117 0.55859h4.8555v4.8145c0 0.12829-0.078341 0.19603-0.125 0.22461-0.040092 0.024633-0.1474 0.074079-0.27734 0.009765-0.5141-0.25476-1.0919-0.37191-1.6719-0.33984-1.6903 0.093355-3.0668 1.4814-3.1328 3.1602-0.035706 0.90617 0.29347 1.7638 0.92578 2.416v0.001953c0.63264 0.65242 1.4821 1.0117 2.3945 1.0117 0.52297 0 1.0255-0.11821 1.4902-0.34961 0.12556-0.062588 0.23027-0.012243 0.26953 0.011719 0.047349 0.029042 0.12695 0.095311 0.12695 0.22461v4.8164h-4.8555c-0.13041 0-0.19927-0.078054-0.22852-0.125-0.024207-0.03901-0.074733-0.14303-0.011719-0.26758 0.23319-0.46089 0.35156-0.95788 0.35156-1.4766 0-0.90503-0.36172-1.7495-1.0195-2.377-0.6252-0.59648-1.4388-0.91992-2.3027-0.91992-0.044576 0-0.087957 8.03e-4 -0.13281 0.001953-1.6924 0.065464-3.0934 1.4289-3.1875 3.1055-0.032246 0.5749 0.086865 1.1502 0.34375 1.6602 0.064908 0.12898 0.015001 0.23372-0.009765 0.27344-0.028874 0.046295-0.097216 0.125-0.22656 0.125h-4.8555v-4.8164c0-0.41329-0.21033-0.78918-0.56445-1.0059-0.35658-0.21814-0.79431-0.23779-1.1699-0.050781-0.33482 0.1667-0.69649 0.25195-1.0742 0.25195-0.65883 0-1.2736-0.2593-1.7305-0.73047-0.45654-0.47094-0.69379-1.0912-0.66797-1.7461 0.047719-1.2116 1.042-2.2139 2.2617-2.2812 0.41922-0.023003 0.83646 0.062364 1.207 0.24609 0.37861 0.18758 0.818 0.16858 1.1758-0.050781 0.35256-0.21618 0.5625-0.59172 0.5625-1.0039v-4.8145h4.8555c0.41668 0 0.79717-0.21125 1.0156-0.5625 0.21998-0.35363 0.2374-0.78564 0.048828-1.1582-0.16806-0.3321-0.25195-0.69173-0.25195-1.0664 0-0.65348 0.26136-1.2617 0.73633-1.7148 0.47474-0.45284 1.0995-0.68986 1.7598-0.66406z" stroke="#000" stroke-width=".96239"/>
		</g>
	</g>
</svg>
