<?xml version="1.0" encoding="UTF-8" standalone="no"?>
<svg
   xmlns:dc="http://purl.org/dc/elements/1.1/"
   xmlns:cc="http://creativecommons.org/ns#"
   xmlns:rdf="http://www.w3.org/1999/02/22-rdf-syntax-ns#"
   xmlns:svg="http://www.w3.org/2000/svg"
   xmlns="http://www.w3.org/2000/svg"
   xmlns:sodipodi="http://sodipodi.sourceforge.net/DTD/sodipodi-0.dtd"
   xmlns:inkscape="http://www.inkscape.org/namespaces/inkscape"
   height="62"
   width="62"
   version="1.1"
   x="0px"
   y="0px"
   viewBox="0 0 62 62"
   enable-background="new 0 0 100 100"
   xml:space="preserve"
   id="svg6"
   sodipodi:docname="icon.svg"
   style="fill:#000000"
   inkscape:version="0.92.3 (2405546, 2018-03-11)"
   inkscape:export-filename="F:\htdocs\spelling-bee\src\assets\icon.png"
   inkscape:export-xdpi="95"
   inkscape:export-ydpi="95"><metadata
     id="metadata12"><rdf:RDF><cc:Work
         rdf:about=""><dc:format>image/svg+xml</dc:format><dc:type
           rdf:resource="http://purl.org/dc/dcmitype/StillImage" /><dc:title></dc:title></cc:Work></rdf:RDF></metadata><defs
     id="defs10" /><sodipodi:namedview
     pagecolor="#ffffff"
     bordercolor="#666666"
     borderopacity="1"
     objecttolerance="10"
     gridtolerance="10"
     guidetolerance="10"
     inkscape:pageopacity="0"
     inkscape:pageshadow="2"
     inkscape:window-width="1920"
     inkscape:window-height="1017"
     id="namedview8"
     showgrid="false"
     fit-margin-top="0"
     fit-margin-left="0"
     fit-margin-right="0"
     fit-margin-bottom="0"
     inkscape:zoom="13.350176"
     inkscape:cx="34.872342"
     inkscape:cy="29.269805"
     inkscape:window-x="-8"
     inkscape:window-y="-8"
     inkscape:window-maximized="1"
     inkscape:current-layer="svg6" /><path
     d="M 12.162348,29.791957 C 10.291617,29.328707 8.5268939,28.733581 7.0996599,28.065855 1.5916989,25.488715 -1.2034351,20.641485 0.59770793,16.790137 2.4000639,12.939515 7.9129859,11.977319 13.419733,14.553732 c 1.853705,0.866616 4.14282,2.344419 6.228854,4.064128 0.09588,-1.970038 0.365467,-3.91369 0.779069,-5.453276 1.444256,-5.36296 5.378737,-8.6418726 9.145817,-7.62592 3.769989,1.015221 5.523367,5.824671 4.080082,11.187386 -0.635114,2.359488 -1.969353,5.214682 -3.490919,7.583907 7.993075,0.324166 14.584773,4.682607 18.356212,7.857851 l 11.872443,-2.989337 c 0.669116,-0.168475 1.3489,0.237842 1.517376,0.906958 0.168475,0.669116 -0.237842,1.3489 -0.906958,1.517375 l -10.260747,2.583531 c 0.700878,0.690777 1.120774,1.16253 1.206311,1.260614 0.250781,0.287468 0.35645,0.674378 0.286744,1.048728 C 52.123692,37.08959 49.330684,51.098558 31.305284,55.637134 13.340007,60.160572 1.8003539,48.02796 1.3180469,47.509016 1.0864939,47.261049 0.96709393,46.930188 0.98495793,46.591578 1.0082379,46.155701 1.6516119,36.596277 12.162348,29.791957 Z m 9.332591,24.254392 c -7.842766,-9.445954 -9.313478,-17.072692 -9.404013,-21.151024 -0.94495,0.703003 -1.793583,1.424035 -2.5425161,2.156055 -0.05151,1.245266 -0.04348,9.476439 8.0402701,18.433762 1.236411,0.266166 2.539644,0.461883 3.906259,0.561207 z M 12.359781,16.819103 C 9.8990129,15.667073 7.4289939,15.358841 5.5816519,15.82398 c -1.266471,0.318882 -2.240318,1.001318 -2.719787,2.025384 -1.177641,2.518776 1.148575,6.011505 5.296777,7.951364 1.8808921,0.880395 4.5471901,1.660999 7.1321321,2.089821 4.428488,0.734954 7.247577,0.213853 7.649948,-0.649524 0.108026,-0.230349 0.05727,-0.558899 -0.004,-0.794056 -0.299775,-1.153725 -1.406027,-2.623087 -2.882877,-4.094009 -0.01069,-0.0097 -0.02065,-0.02058 -0.03134,-0.03026 -2.192791,-2.176468 -5.200015,-4.352051 -7.662722,-5.503593 z m 18.880176,-0.742386 c 1.055714,-3.920429 0.03858,-7.48909 -2.315572,-8.123485 -2.351723,-0.632944 -5.026448,1.94001 -6.081917,5.861409 -0.521107,1.935829 -0.788745,4.603932 -0.7225,7.074535 1.225238,1.266159 2.222074,2.571267 2.807695,3.8077 0.717434,-0.136299 1.427167,-0.23766 2.128227,-0.303839 1.757168,-2.309958 3.482423,-5.713214 4.184067,-8.31632 z m 16.601991,18.841617 -2.516458,0.633614 c -0.669116,0.168475 -1.3489,-0.237842 -1.517375,-0.906958 -0.168475,-0.669116 0.237842,-1.3489 0.906958,-1.517375 L 45.437524,32.94571 C 41.158602,29.712627 34.29091,25.937221 26.466512,26.979219 c 4.1e-4,0.09992 -0.0091,0.20132 -0.02981,0.303463 -0.866885,4.289494 1.210235,14.119863 10.436896,23.701008 3.599233,-1.731212 6.225906,-3.888865 8.119896,-6.036311 -1.762226,0.168374 -4.023949,-0.164462 -6.800601,-1.66594 -0.606406,-0.327859 -0.832513,-1.086616 -0.504898,-1.693992 0.327859,-0.606407 1.086127,-0.834453 1.693992,-0.504899 5.521017,2.985305 8.147765,0.295529 8.302707,0.128646 1.156658,-2.016449 1.720361,-3.717574 1.951263,-4.577995 -0.371486,-0.385978 -0.982969,-0.992017 -1.794012,-1.714865 z M 31.457998,52.99178 C 22.95789,43.937172 20.978993,35.402022 20.623247,30.675837 c -1.070144,0.0993 -2.196518,0.07767 -3.262125,-0.0098 -0.300427,1.919449 -0.813669,10.549985 10.850314,23.061715 0.813724,-0.134763 1.64122,-0.300837 2.484888,-0.513263 0.265707,-0.0669 0.50228,-0.151217 0.761674,-0.222716 z M 9.9574439,50.69499 c -2.581551,-3.892484 -3.879469,-7.417259 -4.506975,-10.19615 -1.344666,2.568049 -1.777118,4.724921 -1.910825,5.692865 0.853871,0.806936 3.079488,2.745178 6.4178,4.503285 z"
     id="path2"
     inkscape:connector-curvature="0" /><path
     d="m 22.304342,40.590626 c 0.092,0 0.185,-0.01 0.278,-0.032 l 2.75,-0.625 c 0.673,-0.153 1.095,-0.823 0.942,-1.496 -0.153,-0.673 -0.821,-1.097 -1.496,-0.942 l -2.75,0.625 c -0.673,0.153 -1.095,0.823 -0.942,1.496 0.132,0.58 0.647,0.974 1.218,0.974 z"
     id="path4"
     inkscape:connector-curvature="0" /><path
     style="opacity:1;fill:#f8cd05;fill-opacity:1;stroke:none;stroke-width:3.48702812;stroke-linecap:round;stroke-linejoin:round;stroke-miterlimit:4;stroke-dasharray:none;stroke-opacity:1;paint-order:stroke fill markers"
     d="M 27.424565,52.862165 C 21.732547,46.571069 18.273422,40.224663 17.391239,34.454168 c -0.128551,-0.84087 -0.187667,-3.195801 -0.08932,-3.558006 l 0.05085,-0.187263 1.602976,0.0215 1.602976,0.0215 0.04807,0.625419 c 0.07155,0.930883 0.393412,2.743035 0.729062,4.10482 1.416043,5.745108 4.71656,11.670035 9.333183,16.754474 0.473855,0.521872 0.612576,0.718955 0.536152,0.761724 -0.211119,0.118148 -2.641372,0.669052 -2.95145,0.669052 -0.05534,0 -0.428473,-0.362355 -0.829177,-0.805233 z"
     id="path6296"
     inkscape:connector-curvature="0" /><path
     style="opacity:1;fill:#f8cd05;fill-opacity:1;stroke:none;stroke-width:3.48702812;stroke-linecap:round;stroke-linejoin:round;stroke-miterlimit:4;stroke-dasharray:none;stroke-opacity:1;paint-order:stroke fill markers"
     d="M 20.355679,53.917773 C 17.43384,53.467709 17.641794,53.515522 17.371842,53.231723 16.552212,52.370052 15.12562,50.515692 14.191825,49.09817 11.389505,44.844185 9.8023447,40.366119 9.5307687,35.94731 l -0.05094,-0.828924 0.5497293,-0.508965 c 0.575551,-0.532872 1.895118,-1.615908 1.968816,-1.615908 0.02355,0 0.04281,0.210878 0.04281,0.468618 0,0.617145 0.180021,2.135122 0.375263,3.164293 1.009324,5.320435 3.995987,11.258744 8.410617,16.722626 l 0.499298,0.617969 -0.391708,-0.0102 c -0.21544,-0.0056 -0.475978,-0.02318 -0.578973,-0.03905 z"
     id="path6298"
     inkscape:connector-curvature="0" /><path
     style="opacity:1;fill:#f8cd05;fill-opacity:1;stroke:none;stroke-width:3.48702812;stroke-linecap:round;stroke-linejoin:round;stroke-miterlimit:4;stroke-dasharray:none;stroke-opacity:1;paint-order:stroke fill markers"
     d="m 8.6329877,49.935331 c -1.749757,-1.046135 -3.039877,-1.965607 -4.392288,-3.130395 l -0.721924,-0.621769 0.106773,-0.58367 c 0.134508,-0.735276 0.554189,-2.199778 0.852038,-2.973233 0.304336,-0.790297 0.831026,-1.917497 0.895961,-1.917497 0.02867,0 0.09527,0.193818 0.148015,0.430706 0.568865,2.555063 2.137601,6.067848 4.147944,9.288267 0.106959,0.17134 -0.05513,0.09434 -1.036519,-0.492409 z"
     id="path6300"
     inkscape:connector-curvature="0" /><path
     style="opacity:1;fill:#f8cd05;fill-opacity:1;stroke:none;stroke-width:3.48702812;stroke-linecap:round;stroke-linejoin:round;stroke-miterlimit:4;stroke-dasharray:none;stroke-opacity:1;paint-order:stroke fill markers"
     d="M 36.144957,50.203024 C 33.547471,47.344339 31.726686,44.852112 30.055432,41.867899 28.29609,38.726394 27.019272,35.24156 26.488305,32.132101 26.28931,30.966743 26.217211,28.748475 26.345587,27.741119 l 0.093,-0.72978 0.497824,-0.06131 c 0.273803,-0.03372 1.323656,-0.0588 2.333006,-0.05573 1.487207,0.0045 2.034024,0.03628 2.883857,0.167535 3.71836,0.574274 7.442704,2.061871 11.048543,4.413067 1.079416,0.703836 2.022445,1.377066 2.022445,1.443828 0,0.02802 -0.193613,0.09427 -0.430253,0.147232 -1.182682,0.264673 -1.490072,1.629106 -0.528719,2.34686 0.353205,0.263706 0.742031,0.241918 2.188583,-0.122638 l 1.341969,-0.338199 0.866257,0.849563 0.866257,0.849562 -0.0942,0.352214 c -0.322888,1.207246 -1.58392,3.945569 -1.990146,4.321591 -0.684651,0.633746 -1.795476,1.0298 -3.043703,1.085204 -1.442229,0.06401 -2.745397,-0.247431 -4.48655,-1.072249 -0.938177,-0.444431 -1.312292,-0.503277 -1.782139,-0.28032 -0.309217,0.146733 -0.59221,0.550177 -0.663964,0.946568 -0.06703,0.370298 0.126264,0.883882 0.42832,1.138045 0.539076,0.453603 2.58518,1.288145 3.920098,1.598886 0.829879,0.19318 2.193948,0.327896 2.696593,0.26632 l 0.374527,-0.04588 -0.898864,0.911903 c -1.48002,1.50149 -2.998484,2.691984 -4.86885,3.817238 -0.969846,0.583482 -2.143847,1.205273 -2.275668,1.205273 -0.03811,0 -0.35259,-0.311794 -0.698852,-0.692875 z"
     id="path6306"
     inkscape:connector-curvature="0" /></svg>