<?xml version="1.0" encoding="UTF-8" standalone="no"?>
<svg
   xmlns:dc="http://purl.org/dc/elements/1.1/"
   xmlns:cc="http://creativecommons.org/ns#"
   xmlns:rdf="http://www.w3.org/1999/02/22-rdf-syntax-ns#"
   xmlns:svg="http://www.w3.org/2000/svg"
   xmlns="http://www.w3.org/2000/svg"
   xmlns:sodipodi="http://sodipodi.sourceforge.net/DTD/sodipodi-0.dtd"
   xmlns:inkscape="http://www.inkscape.org/namespaces/inkscape"
   height="64"
   width="64"
   version="1.1"
   x="0px"
   y="0px"
   viewBox="0 0 64 64"
   enable-background="new 0 0 100 100"
   xml:space="preserve"
   id="svg6"
   sodipodi:docname="icon.svg"
   style="fill:#000000"
   inkscape:version="0.92.3 (2405546, 2018-03-11)"><metadata
     id="metadata12"><rdf:RDF><cc:Work
         rdf:about=""><dc:format>image/svg+xml</dc:format><dc:type
           rdf:resource="http://purl.org/dc/dcmitype/StillImage" /><dc:title></dc:title></cc:Work></rdf:RDF></metadata><defs
     id="defs10" /><sodipodi:namedview
     pagecolor="#ffffff"
     bordercolor="#666666"
     borderopacity="1"
     objecttolerance="10"
     gridtolerance="10"
     guidetolerance="10"
     inkscape:pageopacity="0"
     inkscape:pageshadow="2"
     inkscape:window-width="1920"
     inkscape:window-height="1017"
     id="namedview8"
     showgrid="false"
     inkscape:zoom="9.44"
     inkscape:cx="37.56643"
     inkscape:cy="22.462891"
     inkscape:window-x="-8"
     inkscape:window-y="-8"
     inkscape:window-maximized="1"
     inkscape:current-layer="svg6"
     fit-margin-top="0"
     fit-margin-left="0"
     fit-margin-right="0"
     fit-margin-bottom="0" /><path
     d="m 35.488777,7.1586089 c 0.953922,-0.01589 1.879219,0.201484 2.730469,0.677734 3.408,1.905 3.935562,6.9977031 1.226563,11.8457021 -1.192001,2.133 -3.184282,4.575954 -5.238282,6.501954 7.672,2.265999 13.000813,8.101562 15.882813,12.101562 h 12.242187 c 0.69,0 1.25,0.56 1.25,1.25 0,0.69 -0.56,1.25 -1.25,1.25 H 51.752449 c 0.511,0.841 0.802328,1.401578 0.861328,1.517578 0.173,0.34 0.180485,0.741891 0.02148,1.087891 -0.252,0.549 -6.38075,13.451172 -24.96875,13.451172 -18.5260006,0 -26.75275062,-14.582125 -27.09375062,-15.203125 -0.164,-0.297 -0.19961,-0.648657 -0.09961,-0.972657 0.129,-0.417 3.08740602,-9.528546 14.94140762,-13.560547 -1.701001,-0.905999 -3.267282,-1.914156 -4.488282,-2.910156 -4.7120006,-3.844 -6.2397346,-9.226483 -3.5527346,-12.521483 2.6880006,-3.2940001 8.2694696,-2.8820631 12.9804696,0.960937 1.586,1.293 3.445828,3.285891 5.048828,5.46289 0.574,-1.886999 1.308937,-3.707608 2.085937,-5.099608 2.0325,-3.6360001 5.138235,-5.7921721 8,-5.8398441 z m 0.216797,2.503906 c -1.994557,-0.07995 -4.423641,1.6763281 -6.033203,4.5566411 -0.978,1.75 -1.888734,4.271593 -2.427734,6.683593 0.879,1.527 1.526968,3.036906 1.792968,4.378906 0.729,0.043 1.440719,0.117609 2.136719,0.224609 2.268,-1.811 4.771891,-4.689969 6.087891,-7.042969 1.981,-3.543999 1.866281,-7.253358 -0.261719,-8.443358 C 36.601871,9.7971869 36.165857,9.6809659 35.705574,9.6625149 Z M 12.443855,11.953531 c -1.306,0 -2.417812,0.422828 -3.1328126,1.298828 -1.757,2.155 -0.353688,6.111858 3.1953126,9.005858 1.609,1.313 4.00425,2.720578 6.40625,3.767578 4.115,1.794 6.975172,1.977282 7.576172,1.238282 0.161,-0.197 0.191453,-0.528485 0.189453,-0.771485 -0.009,-1.192 -0.721922,-2.886828 -1.794921,-4.673828 -0.008,-0.012 -0.01544,-0.02511 -0.02344,-0.03711 -1.595,-2.646 -3.978937,-5.490984 -6.085938,-7.208984 -2.104999,-1.718 -4.425078,-2.61914 -6.330078,-2.61914 z m 17.527344,15.916014 c -0.024,0.097 -0.05656,0.19311 -0.101562,0.28711 -1.888,3.948 -2.274016,13.989203 4.333984,25.533203 3.913,-0.8 6.986656,-2.251094 9.347656,-3.871094 -1.75,-0.267 -3.8615,-1.143344 -6.1875,-3.277344 -0.508,-0.466 -0.542172,-1.256625 -0.07617,-1.765625 0.466,-0.508 1.256625,-0.544171 1.765625,-0.07617 4.625,4.243 7.828532,2.276344 8.019532,2.152344 1.614,-1.673 2.575765,-3.18489 3.009765,-3.96289 -0.266,-0.465 -0.710312,-1.202563 -1.320312,-2.101563 h -2.595703 c -0.69,0 -1.25,-0.56 -1.25,-1.25 0,-0.69 0.56,-1.25 1.25,-1.25 h 0.746093 c -3.36,-4.18 -9.099406,-9.517969 -16.941406,-10.417969 z m -9.728516,1.353516 c -0.759999,1.788 -3.365374,10.030719 4.890626,25.011719 0.822,0.068 1.665156,0.109375 2.535156,0.109375 0.274,0 0.523968,-0.0233 0.792968,-0.0293 -6.032,-10.856 -5.867593,-19.617109 -5.058593,-24.287109 -1.062,-0.165 -2.148156,-0.459688 -3.160157,-0.804688 z m -5.65625,0.875 c -1.088,0.451 -2.087187,0.94175 -2.992187,1.46875 -0.354,1.195 -2.3551256,9.179844 3.296875,19.839844 1.134,0.56 2.349391,1.068047 3.650391,1.498047 -5.299,-11.075 -4.863079,-18.829641 -3.955079,-22.806641 z m 21.771485,3.523438 c 0.08316,0.0019 0.167578,0.01187 0.251953,0.03125 l 2.75,0.625 c 0.673,0.152999 1.094406,0.823093 0.941406,1.496093 -0.132,0.58 -0.645797,0.972656 -1.216797,0.972657 -0.092,0 -0.186297,-0.0093 -0.279297,-0.03125 l -2.75,-0.625 c -0.673,-0.153 -1.094406,-0.823094 -0.941406,-1.496094 0.133875,-0.588875 0.661992,-0.986137 1.244141,-0.972656 z M 6.2915114,35.850014 c -1.931,2.162 -2.878141,4.146734 -3.244141,5.052735 0.631,0.990999 2.317,3.413593 5.125,5.933593 -1.553,-4.405 -1.950859,-8.138328 -1.880859,-10.986328 z"
     id="body"
     inkscape:connector-curvature="0"
     style="fill:#000000;fill-opacity:1;stroke:none;stroke-opacity:1"
     sodipodi:insensitive="true" /><path
     style="opacity:1;fill:#f8cd05;fill-opacity:1;stroke:none;stroke-width:3.48702812;stroke-linecap:round;stroke-linejoin:round;stroke-miterlimit:4;stroke-dasharray:none;stroke-opacity:1;paint-order:stroke fill markers"
     d="m 6.8835254,45.541569 c -0.608898,-0.615113 -1.463694,-1.555106 -1.899545,-2.088874 -0.923461,-1.130922 -1.863703,-2.425303 -1.86546,-2.568077 -0.0017,-0.13829 0.762329,-1.642928 1.14123,-2.247471 0.445875,-0.711402 0.982274,-1.460516 1.509857,-2.108606 l 0.456262,-0.560479 0.04773,1.346985 c 0.0988,2.78824 0.667204,5.952453 1.528922,8.511254 0.141572,0.420388 0.241809,0.779939 0.222749,0.798999 -0.01906,0.01906 -0.532846,-0.468618 -1.141745,-1.083731 z"
     id="stripe-3"
     inkscape:connector-curvature="0"
     sodipodi:insensitive="true" /><path
     style="opacity:1;fill:#f8cd05;fill-opacity:1;stroke:none;stroke-width:3.48702812;stroke-linecap:round;stroke-linejoin:round;stroke-miterlimit:4;stroke-dasharray:none;stroke-opacity:1;paint-order:stroke fill markers"
     d="M 17.559248,52.517913 C 17.200932,52.381042 16.463274,52.074649 15.920007,51.837041 L 14.93225,51.405025 14.306397,50.132451 C 12.658289,46.781285 11.5867,43.21923 11.159912,39.673255 c -0.0915,-0.760214 -0.130541,-1.636809 -0.130111,-2.92131 6.46e-4,-1.927532 0.09328,-2.918393 0.413344,-4.421523 l 0.159064,-0.747008 1.019647,-0.517168 c 0.560806,-0.284443 1.217891,-0.604753 1.460191,-0.7118 l 0.440543,-0.194632 -0.05122,0.281124 c -0.02817,0.154619 -0.11656,0.702467 -0.196424,1.217442 -0.885739,5.711394 0.39053,12.730393 3.626678,19.945347 0.273002,0.608654 0.496367,1.122693 0.496367,1.142307 0,0.07051 -0.197804,0.01671 -0.838746,-0.228121 z"
     id="stripe-2"
     inkscape:connector-curvature="0"
     sodipodi:insensitive="true" /><path
     style="opacity:1;fill:#f8cd05;fill-opacity:1;stroke:none;stroke-width:3.48702812;stroke-linecap:round;stroke-linejoin:round;stroke-miterlimit:4;stroke-dasharray:none;stroke-opacity:1;paint-order:stroke fill markers"
     d="m 25.448654,54.212375 -0.32752,-0.04493 -0.73744,-1.423202 c -2.756697,-5.320211 -4.35026,-10.106655 -4.950282,-14.868718 -0.151869,-1.205303 -0.130281,-4.463205 0.03673,-5.542998 0.140989,-0.911552 0.486827,-2.328249 0.678303,-2.778608 l 0.114488,-0.269279 0.883986,0.254295 c 0.486193,0.139862 1.182114,0.311599 1.546492,0.381637 l 0.662504,0.127341 -0.04796,0.337074 c -0.414537,2.913606 -0.439921,5.924228 -0.07358,8.726477 0.583992,4.467098 1.885775,8.617556 4.09969,13.070989 0.542734,1.091746 0.998498,2.010273 1.012808,2.041171 0.03014,0.06507 -2.410937,0.05559 -2.898222,-0.01125 z"
     id="stripe-1"
     inkscape:connector-curvature="0"
     sodipodi:insensitive="true" /><path
     style="opacity:1;fill:#f8cd05;fill-opacity:1;stroke:none;stroke-width:3.48702812;stroke-linecap:round;stroke-linejoin:round;stroke-miterlimit:4;stroke-dasharray:none;stroke-opacity:1;paint-order:stroke fill markers"
     d="M 33.728672,52.752021 C 31.52424,48.702546 29.971845,44.420414 29.224153,40.326737 28.83253,38.182564 28.778384,37.538991 28.775295,34.991669 c -0.0031,-2.583313 0.05409,-3.198237 0.449406,-4.829265 0.174125,-0.718425 0.648593,-2.053143 0.78097,-2.196931 0.03038,-0.033 0.388905,-0.0068 0.796726,0.05817 4.020781,0.640736 7.849116,2.491495 11.527866,5.572999 0.898121,0.75231 2.909986,2.768478 3.783912,3.792003 l 0.703529,0.823959 -0.520897,0.04253 c -0.920633,0.07517 -1.318656,0.432472 -1.367583,1.227675 -0.0234,0.380335 3.74e-4,0.494203 0.149032,0.713005 0.09728,0.143213 0.290613,0.337031 0.429619,0.430706 0.241748,0.162915 0.317235,0.17032 1.736138,0.17032 h 1.483402 l 0.352152,0.543064 c 0.598119,0.922376 0.928497,1.478468 0.928497,1.562847 0,0.268109 -1.638454,2.490642 -2.527679,3.428749 -0.491133,0.518132 -0.649359,0.636344 -1.023973,0.765021 -2.113347,0.725919 -4.503277,0.0078 -7.00408,-2.104431 -0.851355,-0.719089 -1.365884,-0.829397 -1.969934,-0.422327 -0.522508,0.352118 -0.707847,1.146582 -0.392515,1.682531 0.172099,0.292506 1.225777,1.185096 2.132637,1.806597 1.132224,0.775951 2.854042,1.543811 3.800618,1.694921 0.175091,0.02795 0.318348,0.07818 0.318348,0.111616 0,0.104055 -1.333813,0.899519 -2.509331,1.496522 -1.78527,0.906676 -3.80506,1.637947 -5.851748,2.118644 l -0.758183,0.178071 z m 6.018117,-16.168613 c 0.384862,-0.261934 0.544511,-0.529969 0.581527,-0.976317 0.04123,-0.497139 -0.159214,-0.938885 -0.529993,-1.168039 -0.284746,-0.175982 -3.054254,-0.833132 -3.511174,-0.833132 -0.549549,0 -1.039353,0.403707 -1.194147,0.984243 -0.07988,0.299581 -0.07465,0.394725 0.03788,0.689384 0.207928,0.54445 0.513631,0.756297 1.369553,0.949074 0.404945,0.0912 1.056485,0.243088 1.447865,0.33752 0.957858,0.23111 1.476968,0.236094 1.798491,0.01727 z"
     id="head"
     inkscape:connector-curvature="0"
     sodipodi:insensitive="true" /><path
     style="opacity:1;fill:#ffffff;fill-opacity:1;stroke:none;stroke-width:3.48702812;stroke-linecap:round;stroke-linejoin:round;stroke-miterlimit:4;stroke-dasharray:none;stroke-opacity:1;paint-order:stroke fill markers"
     d="M 24.015898,27.562508 C 20.669779,27.016099 16.158995,24.97607 12.967354,22.565739 10.21834,20.48968 8.4202704,17.459023 8.6107254,15.222611 c 0.189405,-2.224088 1.9506996,-3.459267 4.5346196,-3.180083 2.581072,0.278876 5.268789,1.885027 7.818463,4.672228 2.555872,2.793978 4.562564,5.861206 5.351468,8.179716 0.236635,0.695445 0.275923,0.906997 0.280054,1.507958 0.0046,0.672406 -0.003,0.705792 -0.20131,0.876651 -0.113362,0.09769 -0.33246,0.212712 -0.486885,0.255598 -0.267838,0.07438 -1.495524,0.09245 -1.891237,0.02783 z"
     id="left-wing"
     inkscape:connector-curvature="0"
     sodipodi:insensitive="true" /><path
     style="opacity:1;fill:#ffffff;fill-opacity:1;stroke:none;stroke-width:3.48699999;stroke-linecap:round;stroke-linejoin:round;stroke-miterlimit:4;stroke-dasharray:none;stroke-opacity:1;paint-order:stroke fill markers"
     d="m 30.345402,25.362881 c -0.205989,-0.03208 -0.569402,-0.06129 -0.807583,-0.0649 -0.27822,-0.0042 -0.442147,-0.04004 -0.458479,-0.100194 -0.262362,-0.966299 -0.768259,-2.295111 -1.222867,-3.212034 l -0.56484,-1.139256 0.208022,-0.829933 c 0.439271,-1.75253 1.250266,-3.931866 1.996055,-5.363871 1.92764,-3.701306 5.149059,-5.7391831 7.355366,-4.6530221 2.091217,1.0295031 2.365301,4.4989601 0.628216,7.9522031 -1.138104,2.262495 -3.51357,5.134785 -5.994189,7.247859 -0.301565,0.256883 -0.424704,0.27451 -1.139701,0.163144 z"
     id="right-wing"
     inkscape:connector-curvature="0"
     sodipodi:insensitive="true" /></svg>