<svg height='100px' width='100px'  fill="#000000" xmlns="http://www.w3.org/2000/svg" xmlns:xlink="http://www.w3.org/1999/xlink" version="1.1" x="0px" y="0px" viewBox="0 0 100 100" enable-background="new 0 0 100 100" xml:space="preserve"><path d="M61.102,42.226c1.701-0.906,3.267-1.914,4.488-2.91c4.712-3.844,6.239-9.227,3.552-12.522  c-2.688-3.294-8.269-2.881-12.98,0.962c-1.586,1.293-3.445,3.285-5.048,5.462c-0.574-1.887-1.31-3.706-2.087-5.098  c-2.71-4.848-7.326-7.067-10.731-5.162c-3.408,1.905-3.934,6.997-1.225,11.845c1.192,2.133,3.183,4.576,5.237,6.502  c-7.672,2.266-13,8.102-15.882,12.102H14.183c-0.69,0-1.25,0.56-1.25,1.25s0.56,1.25,1.25,1.25h10.581  c-0.511,0.841-0.803,1.401-0.862,1.517c-0.173,0.34-0.181,0.741-0.022,1.087c0.252,0.549,6.381,13.452,24.969,13.452  c18.526,0,26.754-14.583,27.095-15.204c0.164-0.297,0.199-0.647,0.099-0.971C75.914,55.371,72.956,46.258,61.102,42.226z   M57.974,68.025c5.299-11.075,4.863-18.83,3.955-22.807c1.088,0.451,2.087,0.943,2.992,1.47c0.354,1.195,2.356,9.179-3.296,19.839  C60.491,67.087,59.275,67.595,57.974,68.025z M57.743,29.694c2.105-1.718,4.425-2.62,6.33-2.62c1.306,0,2.417,0.424,3.132,1.3  c1.757,2.155,0.354,6.11-3.195,9.004c-1.609,1.313-4.004,2.721-6.406,3.768c-4.115,1.794-6.976,1.977-7.577,1.238  c-0.161-0.197-0.192-0.528-0.19-0.771c0.009-1.192,0.723-2.887,1.796-4.674c0.008-0.012,0.015-0.025,0.023-0.037  C53.251,34.256,55.636,31.412,57.743,29.694z M39.253,33.584c-1.981-3.544-1.866-7.253,0.262-8.443  c2.126-1.188,5.348,0.654,7.329,4.199c0.978,1.75,1.889,4.272,2.428,6.684c-0.879,1.527-1.527,3.036-1.793,4.378  c-0.729,0.043-1.442,0.118-2.138,0.225C43.073,38.816,40.569,35.937,39.253,33.584z M27.754,55.909h2.595  c0.69,0,1.25-0.56,1.25-1.25s-0.56-1.25-1.25-1.25h-0.745c3.36-4.18,9.098-9.518,16.94-10.418c0.024,0.097,0.058,0.193,0.103,0.287  c1.888,3.948,2.274,13.988-4.334,25.532c-3.913-0.8-6.987-2.251-9.348-3.871c1.75-0.267,3.862-1.142,6.188-3.276  c0.508-0.466,0.542-1.257,0.076-1.766c-0.466-0.508-1.257-0.544-1.766-0.076c-4.625,4.243-7.829,2.276-8.02,2.152  c-1.614-1.673-2.576-3.185-3.01-3.963C26.699,57.545,27.144,56.808,27.754,55.909z M48.055,69.435  c6.032-10.856,5.867-19.616,5.058-24.286c1.062-0.165,2.149-0.461,3.161-0.806c0.76,1.788,3.365,10.032-4.891,25.013  c-0.822,0.068-1.665,0.109-2.535,0.109C48.574,69.465,48.324,69.441,48.055,69.435z M68.344,61.958  c1.553-4.405,1.951-8.14,1.881-10.988c1.931,2.162,2.877,4.148,3.243,5.054C72.837,57.015,71.152,59.438,68.344,61.958z"></path><path d="M37.432,51.868c0.092,0,0.185-0.01,0.278-0.032l2.75-0.625c0.673-0.153,1.095-0.823,0.942-1.496  c-0.153-0.673-0.821-1.097-1.496-0.942l-2.75,0.625c-0.673,0.153-1.095,0.823-0.942,1.496  C36.346,51.474,36.861,51.868,37.432,51.868z"></path></svg>