<svg viewBox="0 0 24 24" xmlns="http://www.w3.org/2000/svg"><path d="M14.935.054c-1.942 0-3.12 1.424-3.12 2.615 0 1.025.587 1.435.955 1.805h.002v.002c.363.362.437.722.327.982-.11.26-.43.476-1.026.476H5.945v6.139c0 .597-.217.917-.476 1.028-.26.11-.619.036-.98-.328h-.002v-.002c-.37-.369-.78-.957-1.802-.957-1.19 0-2.61 1.18-2.61 3.126s1.42 3.125 2.61 3.125c1.023 0 1.433-.588 1.802-.957v-.002h.002c.361-.363.72-.437.98-.327.26.11.476.43.476 1.028v6.138h6.128c.69 0 1.184-.273 1.366-.702.182-.43.028-.957-.407-1.392-.41-.41-.847-.652-.847-1.542 0-.94.99-2.244 2.75-2.244s2.75 1.304 2.75 2.244c0 .89-.437 1.131-.847 1.542-.435.435-.59.963-.407 1.392.182.429.676.702 1.366.702h6.128v-6.138c0-.691-.273-1.186-.701-1.369-.429-.182-.956-.028-1.39.408-.41.41-.65.848-1.54.848-.937 0-2.239-.99-2.239-2.754s1.302-2.755 2.24-2.755c.889 0 1.13.438 1.54.848.434.436.96.59 1.389.408.428-.182.701-.677.701-1.368V5.934h-6.128c-.596 0-.916-.217-1.026-.476-.11-.26-.036-.62.327-.982v-.002h.002c.368-.37.955-.78.955-1.805 0-1.191-1.178-2.615-3.12-2.615zm7.164 12.72c-14.56 7.324-7.28 3.662 0 0z"/></svg>