<svg version="1.1" viewBox="0 0 190.5 199" xmlns="http://www.w3.org/2000/svg">
	<g class="cells" fill="#e6e6e6">
		<path d="m77.099 67.763-18.425 31.748 18.141 31.748h36.566l18.425-31.748-18.141-31.748z" fill="#f8cd0f"/>
		<path d="m135.85 101.73-18.425 31.748 18.141 31.748h36.566l18.425-31.748-18.141-31.748z"/>
		<path d="m77.099 135.61-18.425 31.748 18.141 31.748h36.566l18.425-31.748-18.141-31.748z"/>
		<path d="M18.388 101.68L-.037 133.428l18.141 31.748H54.67l18.425-31.748-18.141-31.748z"/>
		<path d="M18.388 33.832L-.037 65.58l18.141 31.748H54.67L73.095 65.58 54.954 33.832z"/>
		<path d="M77.099-.09L58.674 31.656l18.141 31.748h36.566l18.425-31.748L113.665-.09z"/>
		<path d="m135.85 33.879-18.425 31.748 18.141 31.748h36.566l18.425-31.748-18.141-31.748z"/>
	</g>
	<path d="m103.04 99.41q0 2.01-0.918 3.606-0.919 1.586-2.32 2.436-1.055 0.639-2.311 0.89-1.257 0.251-2.978 0.251h-5.076v-14.396h5.22q1.76 0 3.037 0.3 1.276 0.29 2.146 0.831 1.489 0.91 2.34 2.456 0.86 1.537 0.86 3.626zm-3.838-0.029q0-1.421-0.522-2.427-0.513-1.015-1.634-1.585-0.57-0.28-1.17-0.377-0.59-0.107-1.789-0.107h-0.937v9.011h0.937q1.325 0 1.944-0.116 0.618-0.126 1.208-0.445 1.015-0.58 1.49-1.547 0.473-0.976 0.473-2.407z"/>
	<path d="m44.825 140.54h-3.838l-0.996-2.91h-5.337l-0.996 2.91h-3.741l5.317-14.396h4.274zm-5.733-5.55-1.77-5.162-1.768 5.163z"/>
	<path d="m160.05 140.56h-10.383v-14.396h3.712v11.611h6.671z"/>
	<path d="m161.03 62.859q0 0.967-0.338 1.895-0.339 0.918-0.967 1.547-0.86 0.85-1.924 1.286-1.054 0.435-2.63 0.435h-2.31v4.689h-3.713v-14.396h6.11q1.373 0 2.31 0.241 0.948 0.232 1.674 0.706 0.87 0.57 1.324 1.46 0.464 0.89 0.464 2.137zm-3.838 0.087q0-0.61-0.329-1.044-0.329-0.445-0.764-0.619-0.58-0.232-1.13-0.251-0.552-0.03-1.47-0.03h-0.638v4.313h1.063q0.947 0 1.557-0.116 0.618-0.116 1.034-0.464 0.358-0.31 0.512-0.735 0.165-0.435 0.165-1.054z"/>
	<path d="m97.708 28.753q0-0.541-0.222-0.928-0.223-0.387-0.764-0.61-0.377-0.154-0.88-0.183-0.503-0.039-1.17-0.039h-1.344v3.877h1.141q0.89 0 1.49-0.087t1.005-0.396q0.386-0.3 0.56-0.657 0.184-0.368 0.184-0.977zm5.791 9.987h-4.534l-3.925-5.279h-1.712v5.279h-3.693v-14.396h6.226q1.277 0 2.195 0.145t1.72 0.628q0.813 0.484 1.287 1.257 0.483 0.764 0.483 1.924 0 1.595-0.744 2.6-0.735 1.006-2.108 1.673z"/>
	<path d="m44.793 58.315-5.308 8.827v5.569h-3.712v-5.395l-5.395-9h4.215l3.113 5.568 3.007-5.569z"/>
	<path d="m95.498 160.05v2.5527 9.291 2.5508h3.7148v-2.5527-9.2891-2.5527h-3.7148z"/>
	<path d="m95.498 160.05h3.7148v14.395h-3.7148z" fill="#f00" style="paint-order:fill markers stroke"/>
</svg>
