<?xml version="1.0" encoding="UTF-8"?>
<svg width="700pt" height="700pt" version="1.1" viewBox="0 0 700 700" xmlns="http://www.w3.org/2000/svg">
 <path d="m427.71 295.58c11.906-6.3438 22.867-13.398 31.414-20.371 32.984-26.906 43.672-64.59 24.863-87.652-18.816-23.059-57.883-20.168-90.859 6.7344-11.102 9.0508-24.113 22.996-35.336 38.234-4.0195-13.211-9.1719-25.941-14.609-35.688-18.969-33.938-51.281-49.469-75.117-36.133-23.855 13.336-27.539 48.98-8.5742 82.914 8.3438 14.93 22.281 32.031 36.66 45.516-53.703 15.863-91 56.715-111.18 84.715l-85.699-0.003906c-4.8281 0-8.75 3.9219-8.75 8.75s3.9219 8.75 8.75 8.75h74.066c-3.5781 5.8867-5.6211 9.8086-6.0352 10.617-1.2109 2.3789-1.2656 5.1875-0.15234 7.6094 1.7656 3.8438 44.668 94.164 174.78 94.164 129.68 0 187.28-102.08 189.66-106.43 1.1484-2.0781 1.3945-4.5273 0.69141-6.7969-0.89844-2.9141-21.605-66.707-104.58-94.93zm-21.898 180.59c37.094-77.523 34.039-131.81 27.684-159.65 7.6172 3.1562 14.609 6.6016 20.945 10.289 2.4766 8.3633 16.492 64.254-23.07 138.87-7.9375 3.9219-16.449 7.4766-25.559 10.488zm-1.6172-268.32c14.734-12.027 30.977-18.34 44.309-18.34 9.1406 0 16.918 2.9688 21.926 9.1016 12.301 15.086 2.4766 42.77-22.363 63.027-11.262 9.1914-28.027 19.047-44.844 26.375-28.805 12.559-48.832 13.84-53.039 8.6641-1.1289-1.3789-1.3438-3.6953-1.3281-5.3984 0.0625-8.3438 5.0625-20.211 12.57-32.719 0.054687-0.085937 0.10547-0.17578 0.16016-0.25781 11.168-18.52 27.863-38.43 42.609-50.453zm-129.43 27.23c-13.867-24.809-13.062-50.77 1.8359-59.102 14.883-8.3164 37.438 4.5781 51.305 29.395 6.8477 12.25 13.223 29.902 16.996 46.789-6.1523 10.688-10.688 21.254-12.551 30.645-5.1016 0.30078-10.094 0.82422-14.965 1.5742-15.879-12.68-33.406-32.832-42.621-49.301zm-80.492 156.27h18.164c4.8281 0 8.75-3.9219 8.75-8.75s-3.9219-8.75-8.75-8.75h-5.2148c23.52-29.262 63.688-66.625 118.58-72.926 0.16797 0.67969 0.40625 1.3516 0.72266 2.0078 13.215 27.637 15.918 97.914-30.34 178.72-27.391-5.6016-48.91-15.758-65.438-27.098 12.25-1.8672 27.035-7.9922 43.316-22.934 3.5547-3.2617 3.793-8.8008 0.53125-12.363-3.2617-3.5547-8.8008-3.8086-12.363-0.53125-32.375 29.699-54.805 15.934-56.141 15.062-11.297-11.711-18.031-22.297-21.07-27.742 1.8711-3.2461 4.9844-8.4062 9.2539-14.699zm142.11 94.684c42.223-75.992 41.07-137.31 35.406-170 7.4336-1.1562 15.043-3.2266 22.129-5.6406 5.3203 12.516 23.555 70.223-34.238 175.09-5.7539 0.47656-11.656 0.76172-17.746 0.76172-1.918 0-3.668-0.16797-5.5508-0.20703zm142.02-52.34c10.871-30.836 13.656-56.98 13.168-76.914 13.516 15.133 20.141 29.035 22.699 35.379-4.4141 6.9336-16.211 23.895-35.867 41.535z"/>
 <path d="m262.02 363.07c0.64453 0 1.2969-0.070313 1.9453-0.22266l19.25-4.375c4.7109-1.0703 7.6641-5.7617 6.5938-10.473-1.0703-4.7109-5.7461-7.6797-10.473-6.5938l-19.25 4.375c-4.7109 1.0703-7.6641 5.7617-6.5938 10.473 0.92578 4.0586 4.5312 6.8164 8.5273 6.8164z"/>
</svg>
