<?xml version="1.0" encoding="UTF-8" standalone="no"?>
<svg
   width="442.15289pt"
   height="347.78989pt"
   version="1.1"
   viewBox="0 0 442.15289 347.78989"
   id="svg1333"
   sodipodi:docname="sba-bee.svg"
   xml:space="preserve"
   inkscape:version="1.2 (dc2aedaf03, 2022-05-15)"
   xmlns:inkscape="http://www.inkscape.org/namespaces/inkscape"
   xmlns:sodipodi="http://sodipodi.sourceforge.net/DTD/sodipodi-0.dtd"
   xmlns="http://www.w3.org/2000/svg"
   xmlns:svg="http://www.w3.org/2000/svg"><defs
     id="defs1337" /><sodipodi:namedview
     id="namedview1335"
     pagecolor="#ffffff"
     bordercolor="#666666"
     borderopacity="1.0"
     inkscape:showpageshadow="2"
     inkscape:pageopacity="0.0"
     inkscape:pagecheckerboard="0"
     inkscape:deskcolor="#d1d1d1"
     inkscape:document-units="pt"
     showgrid="false"
     inkscape:zoom="1.430376"
     inkscape:cx="344.66462"
     inkscape:cy="210.78374"
     inkscape:window-width="1920"
     inkscape:window-height="1009"
     inkscape:window-x="-8"
     inkscape:window-y="-8"
     inkscape:window-maximized="1"
     inkscape:current-layer="svg1333"
     showguides="true" /><path
     id="path1331"
     d="m 270.65568,207.12409 c -0.64453,0 -1.2969,-0.0703 -1.9453,-0.22266 l -19.25,-4.375 c -4.7109,-1.0703 -7.6641,-5.7617 -6.5938,-10.473 1.0703,-4.7109 5.7461,-7.6797 10.473,-6.5938 l 19.25,4.375 c 4.7109,1.0703 7.6641,5.7617 6.5938,10.473 -0.92578,4.0586 -4.5312,6.8164 -8.5273,6.8164 z m -165.69,-67.49 c -11.906,-6.3438 -22.867,-13.398 -31.414,-20.371 -32.984,-26.905996 -43.672,-64.589996 -24.863,-87.651996 18.816,-23.0589996 57.883,-20.168 90.859,6.7344 11.102,9.0508 24.113,22.996 35.336,38.234 4.0195,-13.211 9.1719,-25.941 14.609,-35.688 18.969,-33.9379996 51.281,-49.4689996 75.117,-36.1329996 23.855,13.3359996 27.539,48.9799996 8.5742,82.9139996 -8.3438,14.929996 -22.281,32.030996 -36.66,45.515996 53.703,15.863 91,56.715 111.18,84.715 l 85.699,-0.004 c 4.8281,0 8.75,3.9219 8.75,8.75 0,4.8281 -3.9219,8.75 -8.75,8.75 h -74.066 c 3.5781,5.8867 5.6211,9.8086 6.0352,10.617 1.2109,2.3789 1.2656,5.1875 0.15234,7.6094 -1.7656,3.8438 -44.668,94.164 -174.78,94.164 -129.68,0 -187.2799966,-102.08 -189.6599966,-106.43 -1.14840004,-2.0781 -1.39450004,-4.5273 -0.69141004,-6.7969 0.89844004,-2.9141 21.60499664,-66.707 104.57999664,-94.93 z m 21.898,180.59 c -37.094,-77.523 -34.039,-131.81 -27.684,-159.65 -7.6172,3.1562 -14.609,6.6016 -20.945,10.289 -2.4766,8.3633 -16.492,64.254 23.07,138.87 7.9375,3.9219 16.449,7.4766 25.559,10.488 z m 1.6172,-268.319996 c -14.734,-12.027 -30.977,-18.34 -44.309,-18.34 -9.1406,0 -16.918,2.9688 -21.926,9.1016 -12.301,15.086 -2.4766,42.77 22.363,63.026996 11.262,9.1914 28.027,19.047 44.844,26.375 28.805,12.559 48.832,13.84 53.039,8.6641 1.1289,-1.3789 1.3438,-3.6953 1.3281,-5.3984 -0.0625,-8.3438 -5.0625,-20.211 -12.57,-32.719 -0.0547,-0.0859 -0.10547,-0.17578 -0.16016,-0.25781 -11.168,-18.519996 -27.863,-38.429996 -42.609,-50.452996 z m 129.43,27.23 c 13.867,-24.809 13.062,-50.77 -1.8359,-59.102 -14.883,-8.3164 -37.438,4.5781 -51.305,29.395 -6.8477,12.25 -13.223,29.902 -16.996,46.789 6.1523,10.687996 10.688,21.253996 12.551,30.644996 5.1016,0.30078 10.094,0.82422 14.965,1.5742 15.879,-12.68 33.406,-32.831996 42.621,-49.300996 z m 80.492,156.269996 h -18.164 c -4.8281,0 -8.75,-3.9219 -8.75,-8.75 0,-4.8281 3.9219,-8.75 8.75,-8.75 h 5.2148 c -23.52,-29.262 -63.688,-66.625 -118.58,-72.926 -0.16797,0.67969 -0.40625,1.3516 -0.72266,2.0078 -13.215,27.637 -15.918,97.914 30.34,178.72 27.391,-5.6016 48.91,-15.758 65.438,-27.098 -12.25,-1.8672 -27.035,-7.9922 -43.316,-22.934 -3.5547,-3.2617 -3.793,-8.8008 -0.53125,-12.363 3.2617,-3.5547 8.8008,-3.8086 12.363,-0.53125 32.375,29.699 54.805,15.934 56.141,15.062 11.297,-11.711 18.031,-22.297 21.07,-27.742 -1.8711,-3.2461 -4.9844,-8.4062 -9.2539,-14.699 z m -142.11,94.684 c -42.223,-75.992 -41.07,-137.31 -35.406,-170 -7.4336,-1.1562 -15.043,-3.2266 -22.129,-5.6406 -5.3203,12.516 -23.555,70.223 34.238,175.09 5.7539,0.47656 11.656,0.76172 17.746,0.76172 1.918,0 3.668,-0.16797 5.5508,-0.20703 z m -142.02,-52.34 c -10.871,-30.836 -13.656,-56.98 -13.168,-76.914 -13.516,15.133 -20.141,29.035 -22.699,35.379 4.4141,6.9336 16.211,23.895 35.867,41.535 z" /><g
     id="g4134"
     transform="translate(-266.85079,-474.17593)"><path
       id="path2311"
       style="fill:#ffffff;stroke-width:1"
       d="M 395.33167,526.08002 C 380.59766,514.05301 364.35466,507.74 351.02267,507.74 c -9.1406,0 -16.91799,2.96881 -21.92601,9.10162 -12.30101,15.08599 -2.47661,42.76999 22.363,63.02699 11.26202,9.19139 28.02702,19.047 44.84401,26.37499 28.80499,12.55901 48.83199,13.84001 53.039,8.66412 1.12889,-1.37891 1.34379,-3.6953 1.32808,-5.39841 -0.0624,-8.34381 -5.06247,-20.211 -12.56998,-32.71901 -0.0547,-0.0859 -0.10545,-0.17575 -0.16015,-0.25767 -11.16803,-18.51999 -27.86301,-38.43 -42.60901,-50.45298 z m 129.43,27.23 c 13.86701,-24.80902 13.062,-50.77001 -1.83591,-59.10202 -14.883,-8.3164 -37.43799,4.57812 -51.30499,29.39502 -6.84771,12.24998 -13.223,29.90199 -16.996,46.789 6.15229,10.68797 10.68801,21.25397 12.55099,30.64499 5.1016,0.30078 10.09401,0.82423 14.965,1.57419 15.87901,-12.68 33.40599,-32.832 42.621,-49.30098 z" /><path
       id="path2309"
       style="fill:#f8cd05;fill-opacity:1;stroke-width:1"
       d="m 393.71447,794.40001 c -37.094,-77.523 -34.03899,-131.81001 -27.684,-159.65 -7.6172,3.15618 -14.609,6.60161 -20.945,10.289 -2.4766,8.36328 -16.49199,64.25399 23.07,138.87 7.93749,3.92191 16.44899,7.47661 25.559,10.48799 z m 80.01057,-175.24554 c -0.16809,0.67969 -0.40725,1.35063 -0.72366,2.00682 -13.21497,27.63697 -15.91812,97.91529 30.33987,178.72121 27.39095,-5.6016 48.91099,-15.75817 65.43896,-27.09814 -12.25001,-1.86718 -27.03592,-7.9933 -43.3169,-22.93506 -3.55471,-3.26171 -3.79202,-8.79965 -0.53028,-12.36183 3.26171,-3.55471 8.79965,-3.80906 12.36183,-0.53173 32.37497,29.69898 54.80561,15.93352 56.14161,15.06153 11.29697,-11.711 18.03132,-22.29622 21.07029,-27.74121 -1.87107,-3.24609 -4.98393,-8.40693 -9.25342,-14.69971 v 0.006 H 587.0893 c -4.82811,0 -8.74953,-3.92289 -8.74953,-8.75097 0,-4.82808 3.92142,-8.74953 8.74953,-8.74953 h 5.21484 c -23.51996,-29.26199 -63.68718,-66.62481 -118.5791,-72.92577 z m 44.26756,40.25977 c 0.72252,-0.0198 1.45871,0.0516 2.19727,0.2211 l 19.25099,4.37547 c 4.7109,1.07028 7.66355,5.76088 6.59324,10.47218 -0.92576,4.05859 -4.53072,6.81738 -8.52684,6.81738 h -10e-4 c -0.64454,0 -1.29691,-0.07 -1.94531,-0.22252 l -19.24951,-4.37551 c -4.7109,-1.0703 -7.66358,-5.76235 -6.59327,-10.47361 0.90306,-3.97483 4.37329,-6.70921 8.2749,-6.81446 z m -54.84892,144.84977 c -42.22301,-75.992 -41.07002,-137.31001 -35.406,-170 -7.43361,-1.15619 -15.04301,-3.22659 -22.129,-5.6406 -5.32032,12.51601 -23.555,70.22299 34.23798,175.09 5.75391,0.47656 11.65601,0.76172 17.74602,0.76172 1.91797,0 3.668,-0.16809 5.5508,-0.20693 z m -142.02,-52.34 C 310.25267,721.08799 307.46766,694.944 307.95567,675.01 c -13.51599,15.13302 -20.14101,29.035 -22.69899,35.37902 4.41408,6.9336 16.211,23.89499 35.867,41.53499 z" /></g></svg>
